<svg id="Layer_2" data-name="Layer 2" xmlns="http://www.w3.org/2000/svg" viewBox="0 0 200.75 174.56"><defs><style>.cls-1{fill:#e3d072;}.cls-2{fill:#fff;}.cls-3{fill:#e7654b;}</style></defs><title>cha</title><path class="cls-1" d="M87.12,104.43,86,101.13a1,1,0,0,1,.49-1.17l4.71-2.25a.89.89,0,0,1,.45-.09l20,.9a1,1,0,0,1,.91,1v3.39a.92.92,0,0,0,.06.33l5.53,15.1a1,1,0,0,1-.55,1.22L102,125.39a1,1,0,0,1-1.09-.31l-1.06-1.36-.41.9a1,1,0,0,1-1.13.52l-15.66-4.5a.94.94,0,0,1-.63-1.23l5.09-14.35A1,1,0,0,0,87.12,104.43Z"/><path class="cls-2" d="M89,101.05a.4.4,0,1,0-.74.32l1.11,2.56a.38.38,0,0,0,.36.25.29.29,0,0,0,.16,0,.39.39,0,0,0,.21-.52Z"/><path class="cls-2" d="M91.19,100.53a.4.4,0,1,0-.73.33l1,2.29a.41.41,0,0,0,.37.23.45.45,0,0,0,.16,0,.4.4,0,0,0,.2-.53Z"/><path class="cls-2" d="M97.56,102.53h0a.41.41,0,0,0,.4-.39L98,100a.41.41,0,0,0-.39-.41h0a.39.39,0,0,0-.4.39l0,2.16A.39.39,0,0,0,97.56,102.53Z"/><path class="cls-2" d="M99.63,102.82h0a.39.39,0,0,0,.4-.39l.08-2.41a.4.4,0,0,0-.8,0l-.08,2.41A.42.42,0,0,0,99.63,102.82Z"/><path class="cls-2" d="M101.53,102.89h0a.4.4,0,0,0,.4-.38l.08-2.41a.4.4,0,0,0-.39-.42.42.42,0,0,0-.41.39l-.08,2.41A.4.4,0,0,0,101.53,102.89Z"/><path class="cls-2" d="M108.07,99.89a.42.42,0,0,0-.44.36l-.25,2.43a.39.39,0,0,0,.35.44h0a.39.39,0,0,0,.39-.35l.26-2.44A.4.4,0,0,0,108.07,99.89Z"/><path class="cls-2" d="M110.85,99.89a.41.41,0,0,0-.47.32l-.41,2.21a.41.41,0,0,0,.32.47h.08a.4.4,0,0,0,.39-.32l.41-2.21A.4.4,0,0,0,110.85,99.89Z"/><path class="cls-2" d="M98.83,105.25a1,1,0,0,0-.83-1.66l-1.15.11a1,1,0,0,0-.74.45A1,1,0,0,0,96,105l.29.84a1,1,0,0,0,.74.65.76.76,0,0,0,.21,0,1,1,0,0,0,.73-.33Zm-1.64.47a.21.21,0,0,1-.15-.13l-.28-.84a.2.2,0,0,1,.17-.26l1.15-.11h0a.17.17,0,0,1,.17.11.19.19,0,0,1,0,.22l-.86,1A.18.18,0,0,1,97.19,105.72Z"/><path class="cls-2" d="M102.48,103.36l-2.58.24a1,1,0,0,0-.88.77h0l-.13.57a1,1,0,0,0,.34,1c2.68,2.19,3.23,2.64,3.49,2.64a.31.31,0,0,0,.18-.07c.14-.09.23-.18.18-.34s.2-1.61.49-3.69a1,1,0,0,0-1.09-1.12Zm-.12,4.08c-.48-.38-1.32-1-2.63-2.12a.17.17,0,0,1-.06-.19l.13-.58a.2.2,0,0,1,.17-.15l2.59-.25a.24.24,0,0,1,.16.06.16.16,0,0,1,0,.16C102.55,106,102.43,106.9,102.36,107.44Z"/><path class="cls-2" d="M98.74,106.44a.4.4,0,0,0-.51.24l-.87,2.41a.4.4,0,0,0,.24.52l.13,0a.4.4,0,0,0,.38-.26L99,107A.4.4,0,0,0,98.74,106.44Z"/><path class="cls-2" d="M99.41,107.76a.4.4,0,0,0,.4.38h0a.41.41,0,0,0,.37-.43l-.1-1.51a.4.4,0,1,0-.8,0Z"/><path class="cls-2" d="M98.73,116.18l.67-4.57a.41.41,0,0,0-.34-.46.4.4,0,0,0-.45.34l-.7,4.75a.43.43,0,0,0,.08.29l2.16,2.85-.41,2.81a.39.39,0,0,0,.33.45h.06a.4.4,0,0,0,.4-.34l.43-3a.39.39,0,0,0-.07-.3Z"/><path class="cls-3" d="M94.88,109.09a.5.5,0,0,0-.65-.29l-2,.74-.43-2.24a.5.5,0,1,0-1,.19l.54,2.82a.47.47,0,0,0,.24.34.54.54,0,0,0,.25.06.47.47,0,0,0,.17,0l2.52-1A.49.49,0,0,0,94.88,109.09Z"/><path class="cls-3" d="M89.78,114.21l-1.54,1.49-1.48-1.48a.5.5,0,0,0-.7,0,.5.5,0,0,0,0,.71l1.82,1.82a.47.47,0,0,0,.35.15.54.54,0,0,0,.35-.14l1.89-1.82a.5.5,0,1,0-.69-.73Z"/><path class="cls-3" d="M95.1,117.2a.51.51,0,0,0-.5.51l0,1.21H92.69a.51.51,0,0,0-.5.5.5.5,0,0,0,.5.5h2.44a.5.5,0,0,0,.5-.51l0-1.71A.52.52,0,0,0,95.1,117.2Z"/><path class="cls-3" d="M104.41,114.89a.57.57,0,0,0,.18,0,.5.5,0,0,0,.31-.1l1.89-1.44a.5.5,0,1,0-.6-.79l-1.25.94-.24-1.33a.5.5,0,1,0-1,.18l.38,2.13A.52.52,0,0,0,104.41,114.89Z"/><path class="cls-3" d="M110.47,104.92a.5.5,0,0,0-.55.44l-.24,2.22c-1.52-.66-1.6-.64-1.77-.6a.51.51,0,0,0,.06,1c.22.06,1.16.46,1.94.8a.46.46,0,0,0,.2,0,.55.55,0,0,0,.25-.07.51.51,0,0,0,.25-.38l.3-2.9A.5.5,0,0,0,110.47,104.92Z"/><path class="cls-3" d="M113.54,113.41a.5.5,0,0,0-.44.55l.2,1.79c-2,0-2,.09-2.14.31a.5.5,0,0,0,.13.7.48.48,0,0,0,.28.08.47.47,0,0,0,.17,0c.25,0,1.26-.06,2.12-.07a.5.5,0,0,0,.37-.17.47.47,0,0,0,.12-.38l-.26-2.34A.5.5,0,0,0,113.54,113.41Z"/><path class="cls-3" d="M107,121.26l-1.74.09.19-1.82a.5.5,0,1,0-1-.11l-.26,2.41a.49.49,0,0,0,.13.4.51.51,0,0,0,.37.15h0l2.34-.12a.52.52,0,0,0,.47-.53A.5.5,0,0,0,107,121.26Z"/><path class="cls-3" d="M115.43,109.24a.5.5,0,0,0-.7.12l-1,1.44a.49.49,0,0,0,.12.69.46.46,0,0,0,.29.1.54.54,0,0,0,.41-.21l1-1.44A.51.51,0,0,0,115.43,109.24Z"/><path class="cls-3" d="M87,110.79a.5.5,0,0,0,.5-.5V107.5a.5.5,0,0,0-.5-.5.5.5,0,0,0-.5.5v2.79A.5.5,0,0,0,87,110.79Z"/><path class="cls-3" d="M89,120.31a.52.52,0,0,0-.68.21l-.61,1.15a.5.5,0,0,0,.2.68.53.53,0,0,0,.24.06.52.52,0,0,0,.44-.26l.61-1.16A.51.51,0,0,0,89,120.31Z"/></svg>