<svg id="Layer_2" data-name="Layer 2" xmlns="http://www.w3.org/2000/svg" viewBox="0 0 200.75 174.56"><defs><style>.cls-1{fill:none;}.cls-2{fill:#38547b;}.cls-3{fill:#fff;}.cls-4{fill:#f58d74;}.cls-5{fill:#231f20;}</style></defs><title>cha-20</title><polygon class="cls-1" points="99.43 79.03 99.61 78.81 99.27 78.84 99.43 79.03"/><path class="cls-2" d="M127.71,85.36c-.62-2.29-1.87-8-1.87-8l-6.17-8.8v-.3L115,60.94l.33-.8-1.89-1.56,1-1.57-2.29-1.95,7.25-22.69-11.65-9L99,21.84l-19.4,6.47,5.24,27.31-1.17,2.17,1.42,3-5.88,7.84L73,77.38s-1.25,5.69-1.88,8-3.26,18.38-.55,24,10.26,4,10.26,4L85.24,107a2,2,0,0,0-.18-2.44l-2.26-2.46L83,99.23l-3.08-4.14,4.92-9.87,1.87,12.9-.9,14.28-2,16.16.41,12.56-1.11,11.79-4.64,4.3a2.27,2.27,0,0,0-.28,2,1.82,1.82,0,0,0,1.59,1.31l15.75-.27s2.15-.56,1-4.86l.48-22.4,2.49-19.08L101.92,133l.48,22.4c-1.18,4.3,1,4.86,1,4.86l15.74.27a1.83,1.83,0,0,0,1.6-1.31,2.27,2.27,0,0,0-.28-2l-4.64-4.3-1.11-11.79.41-12.56-2-16.16-.9-14.28,1.87-12.9,4.79,10.33-3,3.68.17,2.84-2.27,2.46a2,2,0,0,0-.17,2.44l4.38,6.41s7.56,1.59,10.27-4S128.34,87.65,127.71,85.36ZM99.43,79l-.17-.19.35,0Z"/><path class="cls-3" d="M114.63,80.17h-.06a.25.25,0,0,1-.19-.3l2.06-9.14a.25.25,0,0,1,.3-.19.25.25,0,0,1,.19.3L114.87,80A.25.25,0,0,1,114.63,80.17Z"/><path class="cls-3" d="M120,93.73a.24.24,0,0,1-.22-.14.25.25,0,0,1,.11-.33l8.24-4a.26.26,0,0,1,.34.11.25.25,0,0,1-.12.34l-8.24,4Z"/><path class="cls-3" d="M119.4,104.28h-.08l-3.11-1.06a.23.23,0,0,1-.16-.31.26.26,0,0,1,.32-.16l2.88,1,1.67-4.6a.26.26,0,0,1,.32-.15.25.25,0,0,1,.15.32l-1.76,4.83A.24.24,0,0,1,119.4,104.28Z"/><path class="cls-3" d="M121.46,105.59a.25.25,0,0,1-.19-.09l-1.66-1.91a.24.24,0,0,1,0-.35.25.25,0,0,1,.35,0l1.66,1.91a.25.25,0,0,1,0,.36A.23.23,0,0,1,121.46,105.59Z"/><path class="cls-3" d="M79.78,93.85a.26.26,0,0,0,.22-.14.25.25,0,0,0-.11-.34l-8.24-4a.24.24,0,0,0-.33.12.25.25,0,0,0,.11.33l8.24,4A.23.23,0,0,0,79.78,93.85Z"/><path class="cls-3" d="M80.16,104.28h.08l3.12-1.06a.23.23,0,0,0,.15-.31.25.25,0,0,0-.31-.16l-2.89,1-1.67-4.6a.26.26,0,0,0-.32-.15.25.25,0,0,0-.15.32l1.76,4.83A.24.24,0,0,0,80.16,104.28Z"/><path class="cls-3" d="M78.1,105.59a.25.25,0,0,0,.19-.09L80,103.59a.24.24,0,0,0,0-.35.25.25,0,0,0-.35,0l-1.66,1.91a.25.25,0,0,0,0,.36A.23.23,0,0,0,78.1,105.59Z"/><path class="cls-3" d="M85.29,85.29a.25.25,0,0,1-.25-.2l-1.56-8.44a.25.25,0,1,1,.5-.09L85.53,85a.25.25,0,0,1-.2.29Z"/><path class="cls-3" d="M95.08,75.84a.25.25,0,0,1-.15,0L84.52,68.27l-4,.88a.25.25,0,0,1-.3-.19.26.26,0,0,1,.19-.3l4.07-.9a.24.24,0,0,1,.2,0l10.5,7.59a.25.25,0,0,1,.06.35A.28.28,0,0,1,95.08,75.84Z"/><path class="cls-3" d="M103.64,77.32a.25.25,0,0,0,.14-.06l9.19-9,4,.29a.26.26,0,0,0,.27-.24.25.25,0,0,0-.23-.26l-4.16-.3a.26.26,0,0,0-.2.07l-9.27,9.05a.24.24,0,0,0,0,.35A.25.25,0,0,0,103.64,77.32Z"/><path class="cls-3" d="M113,92.78h0L86,91.57a.25.25,0,0,1-.24-.26c0-.14.1-.27.26-.24L113,92.28a.24.24,0,0,1,.24.26A.26.26,0,0,1,113,92.78Z"/><path class="cls-3" d="M87.25,98.86a.25.25,0,0,1-.25-.25.23.23,0,0,1,.24-.25l25-.61a.26.26,0,0,1,.26.25.25.25,0,0,1-.25.25l-25,.61Z"/><path class="cls-3" d="M103.07,129.25a.26.26,0,0,1-.25-.21c-.21-1.52-.9-6.47-.9-6.67a.25.25,0,0,1,.25-.25.25.25,0,0,1,.25.24c0,.23.54,4.08.9,6.61a.25.25,0,0,1-.21.28Zm-.65-6.88Z"/><path class="cls-3" d="M103.67,154.47a.26.26,0,0,1-.25-.25l-.15-18.64a.25.25,0,0,1,.25-.25h0a.25.25,0,0,1,.25.25l.15,18.64a.24.24,0,0,1-.24.25Z"/><path class="cls-3" d="M103.52,134a.26.26,0,0,1-.25-.24c0-.12-.18-.88-.34-1.55a.25.25,0,0,1,.14-.29l9-4.22a.25.25,0,0,1,.24,0l3,1.86a.25.25,0,0,1,.08.35.25.25,0,0,1-.34.08l-2.9-1.79-8.74,4.08a14.22,14.22,0,0,1,.31,1.46A.25.25,0,0,1,103.52,134Z"/><path class="cls-3" d="M96,131.41H96a.26.26,0,0,1-.2-.3l1.81-8.89a.26.26,0,0,1,.3-.2.25.25,0,0,1,.19.3l-1.81,8.89A.25.25,0,0,1,96,131.41Z"/><path class="cls-3" d="M93.88,133l-.12,0-2-1.11-5.29-4.79-2,1.08a.25.25,0,0,1-.34-.11.24.24,0,0,1,.1-.33l2.17-1.16a.23.23,0,0,1,.28,0L92,131.48l2,1.07a.25.25,0,0,1-.12.47Z"/><path class="cls-3" d="M95.38,133.22a.24.24,0,0,1-.24-.22.25.25,0,0,1,.21-.28l1.21-.15a.25.25,0,0,1,.28.22.25.25,0,0,1-.22.28l-1.2.15Z"/><path class="cls-3" d="M95.87,154.8a.25.25,0,0,1-.25-.24l-.3-20.25a.23.23,0,0,1,.24-.25h0a.25.25,0,0,1,.25.24l.3,20.25a.25.25,0,0,1-.25.25Z"/><path class="cls-3" d="M91.62,94.69a.25.25,0,0,1-.25-.25.23.23,0,0,1,.24-.25l5-.1h0a.24.24,0,0,1,.25.24.26.26,0,0,1-.24.26l-5,.1Z"/><path class="cls-3" d="M92.67,96.14a.25.25,0,0,1-.25-.23.26.26,0,0,1,.24-.27l4-.2a.24.24,0,0,1,.26.24.25.25,0,0,1-.24.26l-4,.2Z"/><path class="cls-3" d="M80.56,84.19a.27.27,0,0,1-.16-.06l-2.61-2.21a.25.25,0,0,1,0-.36.26.26,0,0,1,.35,0l2.62,2.21a.27.27,0,0,1,0,.36A.25.25,0,0,1,80.56,84.19Z"/><path class="cls-3" d="M80.36,85.29H80.3l-3.12-.85a.25.25,0,0,1-.17-.31.24.24,0,0,1,.3-.17l3.12.85a.25.25,0,0,1-.07.49Z"/><path class="cls-3" d="M81.76,29.1a.24.24,0,0,0-.35,0,.25.25,0,0,0,0,.35l4.06,5.05a.26.26,0,0,0,.36,0,.25.25,0,0,0,0-.35Z"/><path class="cls-3" d="M118.23,32.73a.26.26,0,0,0-.35-.07c-.16.1-3.47,1.86-5.65,3a.25.25,0,0,0-.13.26l.69,4.93a.24.24,0,0,0,.24.21h0a.25.25,0,0,0,.21-.28L112.62,36c1.19-.63,5.37-2.86,5.54-3A.25.25,0,0,0,118.23,32.73Z"/><path class="cls-3" d="M96.55,46.21a.28.28,0,0,0,.12,0c.41-.13,9.38-1.5,15.31-2.4a.25.25,0,0,0-.07-.49c-15.24,2.3-15.4,2.41-15.46,2.45a.26.26,0,0,0-.1.35A.26.26,0,0,0,96.55,46.21Z"/><path class="cls-3" d="M108.7,45.78a.25.25,0,0,0-.29-.21l-9.57,1.66a.26.26,0,0,0-.21.29.26.26,0,0,0,.25.21h0l9.57-1.67A.25.25,0,0,0,108.7,45.78Z"/><path class="cls-3" d="M105.43,59.38a.26.26,0,0,0-.27-.23L86.42,60.93a.25.25,0,0,0,0,.5h0l18.75-1.78A.25.25,0,0,0,105.43,59.38Z"/><path class="cls-3" d="M87.62,57.24l5.47.75h.06a.27.27,0,0,0,.22-.22.25.25,0,0,0-.21-.28l-5.47-.74a.25.25,0,1,0-.07.49Z"/><path class="cls-3" d="M108.05,59a.23.23,0,0,0,.11,0l4.18-2.12a.24.24,0,0,0,.12-.33.25.25,0,0,0-.34-.11l-4.18,2.12a.23.23,0,0,0-.11.33A.24.24,0,0,0,108.05,59Z"/><path class="cls-3" d="M112.48,59.73l-3.61-.23a.25.25,0,0,0-.27.23.24.24,0,0,0,.23.26l3.62.23h0a.25.25,0,0,0,.25-.23A.23.23,0,0,0,112.48,59.73Z"/><path class="cls-3" d="M105.41,61.17a.24.24,0,0,0-.25-.06.28.28,0,0,0-.17.21l-.34,2.81a.25.25,0,0,0,.22.28.24.24,0,0,0,.27-.22l.29-2.32,1.86,1.77-1.84,4L103,63.27l1.6-1.81a.25.25,0,1,0-.37-.33l-1.72,1.95a.24.24,0,0,0,0,.28l2.75,5a.25.25,0,0,0,.22.13h0a.27.27,0,0,0,.22-.15l2.12-4.64a.26.26,0,0,0-.06-.29Z"/><path class="cls-3" d="M111.24,61.33l-4.53-.63a.26.26,0,0,0-.28.21.25.25,0,0,0,.21.29l4.29.59-.45,4.27-2.14-1.15A.25.25,0,0,0,108,65a.24.24,0,0,0,.1.33l2.47,1.32a.2.2,0,0,0,.11,0,.24.24,0,0,0,.12,0,.26.26,0,0,0,.13-.19l.52-4.87A.26.26,0,0,0,111.24,61.33Z"/><polygon class="cls-4" points="87.93 39.52 88.72 42.72 107.95 42.72 108.81 39.55 87.93 39.52"/><circle class="cls-5" cx="93.06" cy="41.04" r="3.32"/><circle class="cls-5" cx="104.28" cy="41.04" r="3.32"/><path class="cls-5" d="M98.88,40a.51.51,0,0,0-.59,0l-1.19.91a.49.49,0,0,0-.1.7.51.51,0,0,0,.7.1l.9-.69,1,.72a.52.52,0,0,0,.29.09.49.49,0,0,0,.41-.21.51.51,0,0,0-.12-.7Z"/></svg>