<svg id="Layer_2" data-name="Layer 2" xmlns="http://www.w3.org/2000/svg" viewBox="0 0 200.75 174.56"><defs><style>.cls-1{fill:#38547b;}.cls-2{fill:#33ad84;}.cls-3{fill:#fff;}</style></defs><title>cha-18</title><path class="cls-1" d="M79,102.42a.5.5,0,0,0-.7.13L66.35,119.9c-.73-.28-1.21-.41-1.21-.41s-7.14-2.2-13.49,5.23-2,16.67,3.32,19.11,14.47-2,17.5-11.88c2.12-6.92-2.34-10.26-5.19-11.64l11.81-17.2A.51.51,0,0,0,79,102.42Z"/><path class="cls-2" d="M64.56,130.43l-2.4,4.64a21.65,21.65,0,0,0,3.18-.39c2.25-.39,1-1.91,1-1.91l.83-.44C68.37,131.35,64.56,130.43,64.56,130.43Z"/><path class="cls-2" d="M55.08,136.24s.15-3.91-1.13-2.64-1,1.86-1,1.86S54.39,138.73,57,139c0,0-.44-1.37-.73-2.4S55.52,135.26,55.08,136.24Z"/><polygon class="cls-2" points="59.04 128.32 60.31 127.93 60.6 126.96 59.58 126.61 59.04 128.32"/><path class="cls-2" d="M67.39,126.37l-.73-.73s-.39.68-.24.78,1,1.12,1,1A6.14,6.14,0,0,0,67.39,126.37Z"/><path class="cls-3" d="M58.81,142.6a9.26,9.26,0,0,1-3.9-.84.34.34,0,0,1-.25-.42.36.36,0,0,1,.44-.25l.11,0c1.2.58,7.5,3,13.4-5.48a.35.35,0,0,1,.57.39C65.5,141.36,61.62,142.6,58.81,142.6Z"/><path class="cls-3" d="M51.37,138a.35.35,0,0,1-.3-.17,10.93,10.93,0,0,1,.12-10.2.35.35,0,0,1,.47-.14.35.35,0,0,1,.15.47,10.32,10.32,0,0,0-.13,9.51.36.36,0,0,1-.13.48A.37.37,0,0,1,51.37,138Z"/><path class="cls-3" d="M54.24,125.76a.36.36,0,0,1-.2-.06.34.34,0,0,1-.09-.48,10.07,10.07,0,0,1,6-4c2.79-.56,5.77.2,8.86,2.26a.34.34,0,0,1,.09.48.33.33,0,0,1-.48.1c-2.93-1.95-5.73-2.68-8.32-2.15a9.52,9.52,0,0,0-5.56,3.65A.34.34,0,0,1,54.24,125.76Z"/></svg>