<svg id="Layer_2" data-name="Layer 2" xmlns="http://www.w3.org/2000/svg" viewBox="0 0 200.75 174.56"><defs><style>.cls-1{fill:#e3d072;}.cls-2{fill:#e26649;}</style></defs><title>cha</title><circle class="cls-1" cx="70.5" cy="120.15" r="7.15"/><path class="cls-1" d="M72.67,116.28l-.93-.35s.05-.15,6.88-14.52l.9.43Z"/><path class="cls-2" d="M70.92,124.91a4.89,4.89,0,0,1-3.57-1.33,5.75,5.75,0,0,1-1.42-4.65c.3-3.54,4.81-4.34,5-4.37a.26.26,0,0,1,.31.22.27.27,0,0,1-.22.32s-4.28.76-4.55,3.88a5.21,5.21,0,0,0,1.27,4.21,4.58,4.58,0,0,0,3.78,1.15A4.07,4.07,0,0,0,75,122.17a2.93,2.93,0,0,0,0-2.75,4.39,4.39,0,0,0-2.72-1.79,2.8,2.8,0,0,0-2.13.32c-.94.62-1.5,1.41-1.44,2s.44.94,1.19,1.28a2.21,2.21,0,0,0,2.06.12,1.18,1.18,0,0,0,.56-.87c0-.19-.66-.52-1.35-.68a.28.28,0,0,1-.21-.33.28.28,0,0,1,.33-.2c.42.09,1.8.47,1.78,1.22a1.71,1.71,0,0,1-.82,1.32,2.6,2.6,0,0,1-2.57-.08c-1.18-.53-1.48-1.24-1.52-1.74a3.09,3.09,0,0,1,1.69-2.55,3.3,3.3,0,0,1,2.54-.4,4.94,4.94,0,0,1,3.07,2,3.42,3.42,0,0,1,0,3.28,4.66,4.66,0,0,1-4,2.49C71.35,124.91,71.13,124.91,70.92,124.91Z"/></svg>