<svg id="Layer_2" data-name="Layer 2" xmlns="http://www.w3.org/2000/svg" viewBox="0 0 200.75 174.56"><defs><style>.cls-1{fill:#f1f1f1;}.cls-2{fill:#fff;}.cls-3,.cls-4{fill:#10a27b;}.cls-3{stroke:#fff;stroke-linecap:round;stroke-linejoin:round;stroke-width:0.7px;}</style></defs><title>cha-16</title><path class="cls-1" d="M125.86,81.69a38.26,38.26,0,0,0-10.67-16.64,16.9,16.9,0,0,0-2.9-2.42,56.23,56.23,0,0,0-6.21-2.43.67.67,0,0,1-.3-.19l-1.27-1.27a.8.8,0,0,0-1-.12l-3.79,2.27a.8.8,0,0,1-.78,0L94.7,58.59a.79.79,0,0,0-1,.25l-.5.74a.88.88,0,0,1-.33.28c-1.17.51-7,3.14-8.34,4.5,0,0-7.66,5.67-11.49,17.33S70.93,95.57,72.35,97a8.47,8.47,0,0,1,6.78-1.29s3.07-9.89,6.26-15.6l-.5,10.12a.76.76,0,0,1,0,.15l-.47,2.14a2,2,0,0,0,.21,1.78A19.48,19.48,0,0,0,86,95.87a.8.8,0,0,1,.1.93l-.8,1.37a.79.79,0,0,0,0,.86L86.72,101a.75.75,0,0,0,.15.16l1.7,1.29a.79.79,0,0,0,.59.16l23-3.36a.79.79,0,0,0,.59-.41l1.31-2.55a.77.77,0,0,0,0-.68l-.85-1.86a.89.89,0,0,1-.07-.36l.14-13.49c3.22,5.66,6,16.08,6,16.08a10.29,10.29,0,0,1,7.18,1C127.94,95.57,129.69,93.36,125.86,81.69Z"/><path class="cls-2" d="M85.76,79.85a.25.25,0,0,0,.24-.21l.87-5.41a.2.2,0,0,0,0-.13l-2.59-6.64a.25.25,0,0,0-.47.18l2.57,6.58-.85,5.34a.25.25,0,0,0,.21.28Z"/><path class="cls-2" d="M97.91,62.85a.2.2,0,0,0,.11,0,.25.25,0,0,0,.12-.47L94,60.25a.25.25,0,1,0-.23.44Z"/><path class="cls-2" d="M104.77,60l-4.64,2.27a.25.25,0,0,0,.11.47.23.23,0,0,0,.11,0L105,60.48a.25.25,0,0,0,.12-.34A.26.26,0,0,0,104.77,60Z"/><path class="cls-2" d="M88.23,65,94,66.65h.13l6.43-1.78a.25.25,0,1,0-.13-.48l-6.36,1.76-5.72-1.6a.24.24,0,0,0-.3.18A.24.24,0,0,0,88.23,65Z"/><path class="cls-2" d="M113.15,76h0a.25.25,0,0,0,.23-.27l-.92-11.18a.25.25,0,0,0-.27-.23.25.25,0,0,0-.23.27l.92,11.18A.25.25,0,0,0,113.15,76Z"/><path class="cls-2" d="M113.34,77.82a.25.25,0,1,0-.49.1l.33,1.51a.24.24,0,0,0,.24.2h0a.25.25,0,0,0,.19-.3Z"/><path class="cls-2" d="M103.05,94.48a.85.85,0,0,0-.16,0C99.7,94.48,86,93,85.89,93a.24.24,0,0,0-.27.23.24.24,0,0,0,.22.27c.57.06,13.83,1.52,17,1.52h.16a.26.26,0,0,0,.25-.26A.25.25,0,0,0,103.05,94.48Z"/><path class="cls-2" d="M109.11,92.7l-2.11.38a.25.25,0,0,0,0,.49h0l2.11-.38a.26.26,0,0,0,.2-.29A.25.25,0,0,0,109.11,92.7Z"/><path class="cls-2" d="M101.11,96.1l-9.88,1.68a.25.25,0,0,0,0,.49h0l9.89-1.68a.25.25,0,0,0-.09-.49Z"/><polygon class="cls-3" points="96.83 72.97 101.94 72.97 102.49 79.64 99.41 82 96.26 79.64 96.83 72.97"/><path class="cls-4" d="M105.34,68.52a.36.36,0,0,0-.5,0L103,70.74a.34.34,0,0,0,0,.49.3.3,0,0,0,.22.08.36.36,0,0,0,.27-.12L105.38,69A.36.36,0,0,0,105.34,68.52Z"/><path class="cls-4" d="M106.73,70.21a.35.35,0,0,0-.49-.06l-2.52,1.95a.36.36,0,0,0-.06.5.37.37,0,0,0,.28.13.33.33,0,0,0,.21-.07l2.52-2A.35.35,0,0,0,106.73,70.21Z"/><path class="cls-4" d="M94.3,80.05a.36.36,0,0,0-.46-.2l-2.68,1a.37.37,0,0,0-.21.46.36.36,0,0,0,.33.22l.13,0,2.68-1A.36.36,0,0,0,94.3,80.05Z"/><path class="cls-4" d="M94.52,80.67l-2.47,2.25a.35.35,0,0,0,0,.5.38.38,0,0,0,.26.11.36.36,0,0,0,.24-.09L95,81.19a.35.35,0,0,0-.47-.52Z"/><path class="cls-4" d="M98.57,83a.34.34,0,0,0-.4.29l-.47,3a.35.35,0,0,0,.3.4h0a.35.35,0,0,0,.35-.29l.46-3A.35.35,0,0,0,98.57,83Z"/><path class="cls-4" d="M100.17,82.83a.36.36,0,0,0-.32.38l.25,3.25a.34.34,0,0,0,.34.32h0a.34.34,0,0,0,.32-.38l-.24-3.25A.36.36,0,0,0,100.17,82.83Z"/><path class="cls-4" d="M92.07,72l2.5,1a.31.31,0,0,0,.13,0,.35.35,0,0,0,.14-.67l-2.49-1a.35.35,0,0,0-.46.19A.34.34,0,0,0,92.07,72Z"/><path class="cls-4" d="M93.54,69.56a.35.35,0,1,0-.46.52l2,1.76a.35.35,0,0,0,.23.09.32.32,0,0,0,.26-.12.36.36,0,0,0,0-.5Z"/><path class="cls-4" d="M107.65,77.75l-2.54-.15a.36.36,0,0,0-.37.33.35.35,0,0,0,.33.37l2.54.15h0a.35.35,0,0,0,0-.7Z"/><path class="cls-4" d="M107.42,79.92,104.68,79a.35.35,0,0,0-.22.67l2.74.9.11,0a.34.34,0,0,0,.33-.24A.35.35,0,0,0,107.42,79.92Z"/></svg>