<svg id="Layer_2" data-name="Layer 2" xmlns="http://www.w3.org/2000/svg" viewBox="0 0 200.75 174.56"><defs><style>.cls-1{fill:#d3bb57;}.cls-2{fill:#fff;}</style></defs><title>cha</title><path class="cls-1" d="M106.44,107.53l-2-1a8.81,8.81,0,0,0,.83-3,.27.27,0,0,0-.27-.29l-4,0a3,3,0,0,0-1.09-.21,2.48,2.48,0,0,0-.27,0,2.39,2.39,0,0,0,.09-1.92,2.48,2.48,0,0,0-4.71.17l-3,.1a.5.5,0,0,0,0,1h0l2.88-.1a3,3,0,0,0,.2.72l-2.51.9a.5.5,0,0,0,.17,1,.51.51,0,0,0,.17,0l2.8-1a2.5,2.5,0,0,0,1.51.61,3,3,0,0,0,.68,4.06,2.88,2.88,0,0,0,2.55.71h0a5,5,0,0,0,1.8-.5L104,110.3a.51.51,0,0,0,.34.14.54.54,0,0,0,.37-.16.51.51,0,0,0,0-.71l-1.53-1.41a4.92,4.92,0,0,0,.73-.79l2.09,1a.46.46,0,0,0,.23.06.48.48,0,0,0,.44-.28A.49.49,0,0,0,106.44,107.53Z"/><circle class="cls-2" cx="97.66" cy="101.99" r="1.27"/><path class="cls-2" d="M100.07,107.1a.39.39,0,0,1-.28-.12l-.86-.87a.4.4,0,1,1,.57-.56l.63.64,2-1.25a.4.4,0,0,1,.42.68L100.29,107A.43.43,0,0,1,100.07,107.1Z"/></svg>