<svg id="Layer_2" data-name="Layer 2" xmlns="http://www.w3.org/2000/svg" viewBox="0 0 200.75 174.56"><defs><style>.cls-1{fill:#f1f1f1;}.cls-2{fill:#fff;}.cls-3{fill:#e3d072;stroke:#fff;stroke-linecap:round;stroke-linejoin:round;stroke-width:0.7px;}</style></defs><title>cha-14</title><path class="cls-1" d="M125.85,81.78a38.38,38.38,0,0,0-10.67-16.65,16.4,16.4,0,0,0-2.9-2.41,54.3,54.3,0,0,0-6.21-2.43.73.73,0,0,1-.3-.19l-1.27-1.27a.8.8,0,0,0-1-.12L99.75,61A.8.8,0,0,1,99,61l-4.28-2.31a.79.79,0,0,0-1,.25l-.5.74a.79.79,0,0,1-.33.27c-1.17.52-7,3.15-8.34,4.51,0,0-7.66,5.66-11.49,17.33s-2.09,13.88-.67,15.29A8.1,8.1,0,0,1,79,95.72s3.16-9.82,6.36-15.53l-.5,10.12s0,.1,0,.14L84.4,92.6a2,2,0,0,0,.21,1.78c.37.51,1,1.16,1.34,1.58a.79.79,0,0,1,.1.92l-.8,1.38a.77.77,0,0,0,0,.86L86.71,101a.57.57,0,0,0,.15.16l1.7,1.3a.79.79,0,0,0,.59.15l23-3.35a.78.78,0,0,0,.59-.42l1.31-2.54a.8.8,0,0,0,0-.69l-.85-1.85a.94.94,0,0,1-.07-.37l.14-13.49c3.23,5.67,6.12,15.94,6.12,15.94a9.57,9.57,0,0,1,7.06,1.19C127.93,95.66,129.68,93.45,125.85,81.78Z"/><path class="cls-2" d="M85.75,79.93a.24.24,0,0,0,.24-.21l.87-5.4a.2.2,0,0,0,0-.13l-2.59-6.65a.25.25,0,1,0-.46.19l2.56,6.58-.85,5.33a.25.25,0,0,0,.21.29Z"/><path class="cls-2" d="M97.9,62.94A.2.2,0,0,0,98,63a.24.24,0,0,0,.22-.14.24.24,0,0,0-.1-.33L94,60.34a.25.25,0,0,0-.34.1.26.26,0,0,0,.11.34Z"/><path class="cls-2" d="M104.76,60.12l-4.64,2.27a.24.24,0,0,0-.12.33.25.25,0,0,0,.23.14l.11,0L105,60.57a.25.25,0,0,0,.12-.34A.26.26,0,0,0,104.76,60.12Z"/><path class="cls-2" d="M88.22,65.12,94,66.74h.13L100.56,65a.25.25,0,1,0-.13-.48l-6.36,1.76-5.72-1.6a.24.24,0,0,0-.3.17A.25.25,0,0,0,88.22,65.12Z"/><path class="cls-2" d="M113.14,76.1h0a.25.25,0,0,0,.23-.27l-.92-11.19a.25.25,0,0,0-.27-.22.25.25,0,0,0-.23.26l.92,11.19A.25.25,0,0,0,113.14,76.1Z"/><path class="cls-2" d="M113.33,77.9a.26.26,0,0,0-.3-.19.25.25,0,0,0-.19.3l.33,1.51a.25.25,0,0,0,.24.2h0a.25.25,0,0,0,.2-.29Z"/><path class="cls-2" d="M103,94.56a.85.85,0,0,0-.16,0c-3.19,0-16.86-1.49-17-1.51a.24.24,0,0,0-.27.22.25.25,0,0,0,.22.28c.57.06,13.83,1.51,17,1.51H103a.25.25,0,0,0,.25-.25A.26.26,0,0,0,103,94.56Z"/><path class="cls-2" d="M109.1,92.78l-2.11.38a.25.25,0,0,0,.05.5h0l2.11-.37a.25.25,0,0,0-.09-.5Z"/><path class="cls-2" d="M101.1,96.19l-9.88,1.67a.25.25,0,0,0,0,.5h0l9.89-1.68a.24.24,0,0,0,.2-.29A.24.24,0,0,0,101.1,96.19Z"/><polygon class="cls-3" points="96.83 73.06 101.94 73.06 102.48 79.72 99.4 82.09 96.25 79.72 96.83 73.06"/></svg>