<svg id="Layer_2" data-name="Layer 2" xmlns="http://www.w3.org/2000/svg" viewBox="0 0 200.75 174.56"><defs><style>.cls-1{fill:#6da4f7;}.cls-2{fill:#fff;}</style></defs><title>cha-09</title><path class="cls-1" d="M91,36.09c-.06,0-.88.13-1.06.43s3.79,2,4.22,1.73-.12-1.69-.89-2A6,6,0,0,0,91,36.09Z"/><path class="cls-1" d="M100.78,37.82s.16-1.94,1.63-2.25,3.25-.5,2.7.16S100.89,38.68,100.78,37.82Z"/><path class="cls-1" d="M113.35,22.58c-1.54-2.43-5.72-5.66-5.72-5.66-3.58-.63-12,1-14,1.35a.3.3,0,0,1-.35-.31c0-.56.05-1.53-.19-1.73s-1.88,2.28-2.38,3a1.87,1.87,0,0,0,0,1.74,6.59,6.59,0,0,0-2-.87c-1.38-.42-6.75,5.11-8,6.93s-1.83,7.47-.58,7.15a3,3,0,0,1,2.22.34l4.2,3.84a.37.37,0,0,0,.61-.2l.88-4.7s2.81-3.4,2.86-3.33c1.93,2.88,6,3.17,7.65,3.17a.53.53,0,0,0,.51-.66l-.38-1.61.29-.18,2,2.26a.5.5,0,0,0,.37.17.46.46,0,0,0,.33-.13.49.49,0,0,0,.05-.7l-1.9-2.14.43-.27,2.22,2.51a.51.51,0,0,0,.38.16.49.49,0,0,0,.37-.83l-2.11-2.38.39-.24a43.58,43.58,0,0,0,6.17,4.63,1.83,1.83,0,0,1,.79,1.26c.2,1.55.65,4.71.85,4.08.26-.82,4.23-5.79,5.58-5.48.33.08,1.14.4,1.14.4A21.34,21.34,0,0,0,113.35,22.58Z"/><path class="cls-2" d="M92.78,20.56l-2.21,1.81a.31.31,0,0,0-.09.22.26.26,0,0,0,.14.2l1.9,1a.2.2,0,0,0,.11,0,.25.25,0,0,0,.12-.47l-1.57-.83,1.92-1.58a.25.25,0,0,0-.32-.38Z"/><path class="cls-2" d="M86.86,23.33a.27.27,0,0,0,.12,0l1.86-1a.25.25,0,0,0-.25-.44l-1.86,1a.24.24,0,0,0-.09.34A.24.24,0,0,0,86.86,23.33Z"/><path class="cls-2" d="M88.79,23.05,87.33,26.4a.25.25,0,0,0,.13.33l.1,0a.28.28,0,0,0,.23-.15l1.46-3.35a.25.25,0,0,0-.13-.33A.25.25,0,0,0,88.79,23.05Z"/><path class="cls-2" d="M90.1,24.13A.24.24,0,0,0,90,23.8a.26.26,0,0,0-.33.13l-.91,2.17a.21.21,0,0,0,0,.19l1,2.38a.25.25,0,0,0,.24.15H90a.26.26,0,0,0,.14-.33l-.94-2.28Z"/><path class="cls-2" d="M88.17,29.51c-.11,0-.19,0-1.48,1.2a.21.21,0,0,0-.08.19l.06,1.8a.24.24,0,0,0,.25.24h0a.26.26,0,0,0,.25-.26L87.11,31c.48-.45,1-.92,1.14-1a.25.25,0,0,0-.08-.49Z"/><path class="cls-2" d="M85.5,30.73a.27.27,0,0,0-.27.23l-.09,1a.25.25,0,0,0,.23.27h0a.25.25,0,0,0,.25-.23l.09-1A.26.26,0,0,0,85.5,30.73Z"/><path class="cls-2" d="M95.58,28.24a.25.25,0,1,0-.25.43l.94.55a.31.31,0,0,0,.13,0,.25.25,0,0,0,.22-.12.24.24,0,0,0-.09-.34Z"/><path class="cls-2" d="M103.91,25a.24.24,0,0,0-.35,0,.25.25,0,0,0,0,.35L106,27.31a.3.3,0,0,0,.16.05.25.25,0,0,0,.19-.09.25.25,0,0,0,0-.35Z"/><path class="cls-2" d="M104.82,23.33a.25.25,0,0,0,.05-.49l-2.68-.58a.25.25,0,1,0-.11.49l2.69.58Z"/><path class="cls-2" d="M106.09,20.44l2.6.36h0a.26.26,0,0,0,.25-.21.25.25,0,0,0-.21-.28l-2.6-.37a.25.25,0,0,0-.28.21A.26.26,0,0,0,106.09,20.44Z"/><path class="cls-2" d="M111.2,24.55l-2.47-1.47a.26.26,0,0,0-.35.09.25.25,0,0,0,.09.34L110.94,25a.31.31,0,0,0,.13,0,.24.24,0,0,0,.21-.12A.24.24,0,0,0,111.2,24.55Z"/><path class="cls-2" d="M109.24,26.67a.25.25,0,0,0-.35,0,.26.26,0,0,0,0,.36l1.41,1.52a.25.25,0,0,0,.18.08.27.27,0,0,0,.17-.06.25.25,0,0,0,0-.36Z"/></svg>