<svg id="Layer_2" data-name="Layer 2" xmlns="http://www.w3.org/2000/svg" viewBox="0 0 200.75 174.56"><defs><style>.cls-1{fill:#6da4f7;}.cls-2{fill:#fff;}</style></defs><title>cha-08</title><path class="cls-1" d="M86.25,100.68a.81.81,0,0,0,0-.22c0-.31-.12-1.11.38-1.47a4.64,4.64,0,0,1,2-.43h.08l21.3-2.74h.18l1.83.25a.71.71,0,0,1,.59.87l-.41,1.7a.62.62,0,0,0,0,.27l3.06,27.73a.73.73,0,0,1-.06.41l-.63,4.11a.7.7,0,0,1-.75.4l-1.49-.24-.31,1.12-8.68-.22-.85.48-1.91-1.29a.7.7,0,0,1-.23-.91l.24-.47a.69.69,0,0,0,.08-.4l-.62-6.3-1.25.81a.7.7,0,0,0-.3.41l-.71,2.59a.7.7,0,0,0,0,.43l.83,2.22.79.53-.12,1a.68.68,0,0,1-.35.53l-1.16.68a.77.77,0,0,1-.36.09l-12.69.07a.71.71,0,0,1-.58-.31l-.74-1.07.42-.85-1.31-2.53a.67.67,0,0,1-.07-.46Z"/><path class="cls-2" d="M112.89,109a.22.22,0,0,1-.13,0l-3.83-2.49a.26.26,0,0,1-.1-.13l-2.55-7.59a.24.24,0,0,1,.15-.32.25.25,0,0,1,.32.16l2.52,7.51,3.76,2.44a.26.26,0,0,1,.07.35A.26.26,0,0,1,112.89,109Z"/><path class="cls-2" d="M112.8,107.88a.3.3,0,0,1-.14,0l-3-2.1a.23.23,0,0,1-.1-.14l-2.05-6.91a.25.25,0,0,1,.17-.31.24.24,0,0,1,.31.17l2,6.82,3,2.06a.25.25,0,0,1,.06.35A.26.26,0,0,1,112.8,107.88Z"/><path class="cls-2" d="M95.15,104.43a.25.25,0,0,1-.25-.23l-.26-4a.23.23,0,0,1,.13-.23l3-1.55a.25.25,0,0,1,.33.11.24.24,0,0,1-.11.34l-2.88,1.47.24,3.59,2.49-.12.71-4.64a.25.25,0,0,1,.29-.21.26.26,0,0,1,.21.29l-.74,4.83a.27.27,0,0,1-.24.22l-2.94.14Z"/><path class="cls-2" d="M103.28,102.86a.23.23,0,0,1-.16-.06l-3.48-3.06a.25.25,0,1,1,.33-.37l3.18,2.79.75-2.66-1.16,0h-.07l-2.58-.8a.25.25,0,0,1-.16-.32.25.25,0,0,1,.31-.16l2.55.79,1.44,0a.25.25,0,0,1,.2.1.24.24,0,0,1,0,.22l-1,3.35a.24.24,0,0,1-.17.17Z"/><path class="cls-2" d="M100.55,109a.26.26,0,0,1-.25-.22l-.74-6.65a.25.25,0,0,1,.22-.27.25.25,0,0,1,.28.22l.74,6.64a.25.25,0,0,1-.22.28Z"/><path class="cls-2" d="M102.84,108.11a.25.25,0,0,1-.24-.16l-2-5.25a.25.25,0,0,1,.15-.32.24.24,0,0,1,.32.14l2,5.25a.26.26,0,0,1-.15.33Z"/><path class="cls-2" d="M99.6,121.43a.26.26,0,0,1-.24-.19l-1.55-5.93v-.07c.06-3.36.13-8.44.12-8.69a.23.23,0,0,1,.19-.28.25.25,0,0,1,.3.2c0,.15,0,4.83-.11,8.74l1.53,5.91a.24.24,0,0,1-.18.3Z"/><path class="cls-2" d="M85.15,110.1a.26.26,0,0,1-.22-.13.25.25,0,0,1,.11-.34l4.79-2.5c.84-3.08,2.07-7.64,2.11-7.85a.23.23,0,0,1,.25-.23.26.26,0,0,1,.24.27s0,.12-2.14,8a.23.23,0,0,1-.13.16l-4.89,2.55A.27.27,0,0,1,85.15,110.1Z"/><path class="cls-2" d="M85.48,108.38a.26.26,0,0,1-.22-.13.25.25,0,0,1,.1-.34l3.26-1.84,1.6-6.13a.25.25,0,0,1,.31-.18.25.25,0,0,1,.18.3l-1.64,6.23a.22.22,0,0,1-.12.16l-3.35,1.9A.27.27,0,0,1,85.48,108.38Z"/></svg>