<svg id="Layer_2" data-name="Layer 2" xmlns="http://www.w3.org/2000/svg" viewBox="0 0 200.75 174.56"><defs><style>.cls-1{fill:#6da4f7;}.cls-2{fill:#fff;}</style></defs><title>cha-13</title><path class="cls-1" d="M116.37,128.08a.73.73,0,0,0,.06-.41l-4.29-27.91a.82.82,0,0,1,0-.27l.42-1.7a.71.71,0,0,0-.59-.87l-1.83-.25a.61.61,0,0,0-.19,0l-21.3,2.74h-.07a4.6,4.6,0,0,0-2,.42c-.5.37-.42,1.16-.38,1.48a1.48,1.48,0,0,1,0,.21l-4.59,26.32a.7.7,0,0,0,.07.47l1.09,2.7L84,132.34l.53,1.9-2,7.95L86,145.52,85,148l12.9-.73.21-4,2-9.51-2.39-5.61a.62.62,0,0,1,0-.13l.72-2.59a.67.67,0,0,1,.3-.4l1.25-.81.61,6.3c0,.14.56,1,.5,1.12l.12.26-.44,2.55.57,2.61L100,143.31l2.13,4.51,11.79,2.06,1.84-6.5-1.12-5.71.41-6.78Z"/><path class="cls-2" d="M112.81,109.85a.23.23,0,0,1-.14,0l-3.83-2.49a.32.32,0,0,1-.1-.13l-2.55-7.6a.25.25,0,0,1,.48-.16l2.52,7.52,3.76,2.44a.26.26,0,0,1,.07.35A.26.26,0,0,1,112.81,109.85Z"/><path class="cls-2" d="M112.72,108.72a.23.23,0,0,1-.14,0l-3.06-2.11a.32.32,0,0,1-.1-.13l-2-6.92a.24.24,0,0,1,.17-.31.25.25,0,0,1,.31.17l2,6.83,3,2.06a.25.25,0,0,1,.07.34A.24.24,0,0,1,112.72,108.72Z"/><path class="cls-2" d="M95.07,105.28a.25.25,0,0,1-.25-.23l-.27-4a.25.25,0,0,1,.14-.24l3-1.54a.26.26,0,0,1,.34.11.26.26,0,0,1-.11.34l-2.88,1.46.24,3.6,2.49-.13L98.5,100a.25.25,0,0,1,.49.07l-.74,4.84a.24.24,0,0,1-.23.21l-2.94.15Z"/><path class="cls-2" d="M103.2,103.71a.27.27,0,0,1-.17-.06l-3.47-3.06a.25.25,0,0,1,0-.35.24.24,0,0,1,.35,0l3.17,2.8.76-2.66-1.16,0h-.07L100,99.51a.24.24,0,0,1-.17-.31.25.25,0,0,1,.32-.16l2.54.79,1.45,0a.25.25,0,0,1,.24.31l-1,3.36a.29.29,0,0,1-.17.17Z"/><path class="cls-2" d="M100.47,109.88a.24.24,0,0,1-.25-.22L99.48,103a.23.23,0,0,1,.22-.27.24.24,0,0,1,.27.22l.74,6.64a.25.25,0,0,1-.22.28Z"/><path class="cls-2" d="M102.75,109a.24.24,0,0,1-.23-.16l-2-5.25a.25.25,0,0,1,.14-.33.27.27,0,0,1,.33.15l2,5.25a.24.24,0,0,1-.14.32Z"/><path class="cls-2" d="M99.52,122.28a.26.26,0,0,1-.25-.19l-1.54-5.94a.13.13,0,0,1,0-.06c.06-3.36.14-8.44.12-8.69a.24.24,0,0,1,.2-.29.27.27,0,0,1,.3.21c0,.14,0,4.82-.12,8.74l1.54,5.9a.26.26,0,0,1-.18.31Z"/><path class="cls-2" d="M85.07,111a.24.24,0,0,1-.22-.14.24.24,0,0,1,.1-.33l4.8-2.5c.83-3.08,2.06-7.64,2.1-7.85a.23.23,0,0,1,.25-.23.27.27,0,0,1,.25.27s0,.12-2.15,8a.22.22,0,0,1-.12.16l-4.9,2.55A.2.2,0,0,1,85.07,111Z"/><path class="cls-2" d="M85.39,109.23a.25.25,0,0,1-.12-.47l3.26-1.85,1.61-6.13a.25.25,0,0,1,.48.13L89,107.14a.28.28,0,0,1-.12.16l-3.35,1.89A.2.2,0,0,1,85.39,109.23Z"/><path class="cls-2" d="M108.4,131.25a.2.2,0,0,0,.11,0,.24.24,0,0,0,.22-.14.25.25,0,0,0-.12-.34l-3.22-1.52a.27.27,0,0,0-.34.12.26.26,0,0,0,.12.34Z"/><path class="cls-2" d="M109.37,134.69a.25.25,0,0,0,.25-.24.25.25,0,0,0-.24-.26l-2.44,0h0a.26.26,0,0,0-.25.24.26.26,0,0,0,.25.26l2.44,0Z"/><path class="cls-2" d="M106.47,139.73l-2.68.6a.25.25,0,0,0-.19.3.26.26,0,0,0,.24.19h.06l2.68-.6a.25.25,0,0,0,.19-.3A.25.25,0,0,0,106.47,139.73Z"/><path class="cls-2" d="M110.23,143.67c-1-.39-2.11-.86-2.31-1a.26.26,0,0,0-.42.18c0,.2,0,.25,2.54,1.26l.09,0a.26.26,0,0,0,.24-.16A.27.27,0,0,0,110.23,143.67Z"/><path class="cls-2" d="M91.89,143.8,88,145.08a.25.25,0,0,0,.08.49l.07,0,3.94-1.27a.25.25,0,0,0,.16-.32A.26.26,0,0,0,91.89,143.8Z"/><path class="cls-2" d="M92.82,138.12,89,136.54a.26.26,0,0,0-.33.14.25.25,0,0,0,.14.33l3.82,1.57.1,0a.25.25,0,0,0,.09-.48Z"/><path class="cls-2" d="M93.63,131.28l-3.15,1.92a.25.25,0,0,0,.13.46.28.28,0,0,0,.13,0l3.15-1.93a.25.25,0,0,0-.26-.42Z"/></svg>