<svg id="Layer_2" data-name="Layer 2" xmlns="http://www.w3.org/2000/svg" viewBox="0 0 200.75 174.56"><defs><style>.cls-1{fill:#48463a;}.cls-2{fill:#38547b;}.cls-3{fill:#fff;}.cls-4{fill:#6da4f7;}.cls-5{fill:#2d65b8;}</style></defs><title>cha-17-officeWorker</title><path class="cls-1" d="M103,151.63c0-.06.57-6.39.57-6.39l7.85,0s.33,1.39,1.4,4.38a5.63,5.63,0,0,1-1.35,6.4l-6.31-1.65-1.64-2.08Z"/><path class="cls-2" d="M102.53,151.47l-.15,4.09a.17.17,0,0,1,0,.07c-.07.33-.58,3.05,1.56,4s14.23.5,16.36.41a.38.38,0,0,0,.37-.34c.13-1.1.3-4.6-2.88-4.6l-1-.59a.49.49,0,0,1-.16-.16l-3-6a.38.38,0,0,0-.33-.21l-3.76-.15a.39.39,0,0,0-.39.33l-.49,2.87a.34.34,0,0,0,0,.2l.64,1.73-2-1.62a.43.43,0,0,0-.22-.09L103,151.1A.39.39,0,0,0,102.53,151.47Z"/><path class="cls-3" d="M103.39,152.48l3.18.21h0a.23.23,0,0,0,.24-.23.25.25,0,0,0-.23-.27l-3.18-.21a.24.24,0,0,0-.26.24A.25.25,0,0,0,103.39,152.48Z"/><path class="cls-3" d="M106.92,153.1l-3.51-.06h0a.25.25,0,0,0,0,.5l3.51.06h0a.26.26,0,0,0,.25-.24A.26.26,0,0,0,106.92,153.1Z"/><path class="cls-3" d="M118.64,155.53l-6.64.29-2.38-2.27a.24.24,0,0,0-.35,0,.25.25,0,0,0,0,.36l2.45,2.34a.22.22,0,0,0,.17.07h0l6.75-.29a.25.25,0,0,0,.24-.26A.26.26,0,0,0,118.64,155.53Z"/><path class="cls-1" d="M95.5,151.66c0-.06-.58-6.39-.58-6.39l-7.84,0s-.34,1.4-1.41,4.39A5.64,5.64,0,0,0,87,156l6.31-1.66L95,152.29Z"/><path class="cls-2" d="M96,151.5l.15,4.09s0,0,0,.07c.07.34.58,3.05-1.56,4s-14.23.5-16.36.42a.4.4,0,0,1-.37-.35c-.13-1.1-.3-4.6,2.88-4.6l1.05-.59a.35.35,0,0,0,.16-.16l3-6a.42.42,0,0,1,.33-.21l3.76-.14a.38.38,0,0,1,.39.32l.5,2.87a.44.44,0,0,1,0,.2l-.64,1.73,2-1.62a.47.47,0,0,1,.22-.09l4.11-.33A.39.39,0,0,1,96,151.5Z"/><path class="cls-3" d="M95.13,152.51l-3.18.21h0a.24.24,0,0,1-.25-.23.25.25,0,0,1,.23-.27L95.1,152a.25.25,0,0,1,0,.5Z"/><path class="cls-3" d="M91.6,153.13l3.51-.06h0a.25.25,0,0,1,.25.25.24.24,0,0,1-.24.25l-3.51.06h0a.25.25,0,0,1-.25-.24A.26.26,0,0,1,91.6,153.13Z"/><path class="cls-3" d="M79.89,155.56l6.64.29,2.37-2.27a.25.25,0,1,1,.34.36l-2.45,2.35a.24.24,0,0,1-.17.06h0l-6.75-.29a.25.25,0,0,1-.24-.26A.26.26,0,0,1,79.89,155.56Z"/><path class="cls-4" d="M92.86,59.6l.8-1.06a.73.73,0,0,1,.88-.23l4,1.76a.74.74,0,0,1,.43.8l-.22,1.29L99.86,62l-.46-1.65a.73.73,0,0,1,.32-.82l2.85-1.78a.73.73,0,0,1,.79,0l2,1.27-.14.61,8.38,2.1A.76.76,0,0,1,114,62L124.35,79a.85.85,0,0,1,.11.34l1.38,14.41a.26.26,0,0,1-.17.26l-6.2,2a.31.31,0,0,1-.39-.18l-5.65-14.95a.29.29,0,0,0-.4-.14l-1.33.76a.73.73,0,0,0-.36.59c-.1,1.55-.45,7.21-.21,7.73a6.54,6.54,0,0,0,.58,1,.71.71,0,0,1,.1.63l-1.33,4.39a.74.74,0,0,1-.61.52L88.82,98.9a.71.71,0,0,1-.63-.23l-.69-.74a.75.75,0,0,1-.18-.66l.54-2.37a.74.74,0,0,0-.1-.58l-1.41-2.08a.71.71,0,0,1-.12-.45l.35-6.08a.7.7,0,0,0-.06-.32l-1.22-3a.29.29,0,0,0-.52,0L79.16,94.83,79,94.9l-6.47-.49a.31.31,0,0,1-.29-.33L73.67,77a.69.69,0,0,1,.18-.43L86.26,61.86a.7.7,0,0,1,.35-.23l5.87-1.77A.77.77,0,0,0,92.86,59.6Z"/><path class="cls-3" d="M95.89,64.85h0a.25.25,0,0,1-.18-.11l-3.06-4.49a.26.26,0,0,1,.07-.35.25.25,0,0,1,.35.07l2.88,4.24L97,63.15a.25.25,0,0,1,.35,0,.24.24,0,0,1,0,.35l-1.3,1.27A.29.29,0,0,1,95.89,64.85Z"/><path class="cls-3" d="M102.3,64.72a.23.23,0,0,1-.18-.08l-1.44-1.57a.25.25,0,0,1,0-.36.26.26,0,0,1,.36,0l1.21,1.32,2.4-4.07a.25.25,0,0,1,.43.25l-2.58,4.36a.22.22,0,0,1-.18.12Z"/><path class="cls-3" d="M99.38,96.67l-.08,0a.25.25,0,0,1-.16-.31l.89-2.78-1.35-2.74a.23.23,0,0,1,0-.11L98.3,65.78a.27.27,0,0,1,0-.15l1.3-1.87a.26.26,0,0,1,.35-.07.25.25,0,0,1,.06.35L98.8,65.85l.35,24.8,1.37,2.78a.25.25,0,0,1,0,.19l-.91,2.87A.26.26,0,0,1,99.38,96.67Z"/><path class="cls-3" d="M112.63,78.14a.25.25,0,0,1-.25-.24L112,70.06,113,64a.26.26,0,0,1,.29-.21.25.25,0,0,1,.21.29l-1,6.06.35,7.79a.24.24,0,0,1-.24.26Z"/><path class="cls-3" d="M86.17,70.34a.25.25,0,0,1-.25-.24l-.26-5.53a.26.26,0,0,1,.24-.27.25.25,0,0,1,.26.24l.26,5.54a.25.25,0,0,1-.24.26Z"/><path class="cls-3" d="M85.34,81.54h0a.26.26,0,0,1-.2-.29l1-6.15a.25.25,0,0,1,.5.09l-1,6.14A.24.24,0,0,1,85.34,81.54Z"/><path class="cls-3" d="M82.38,81.37l-.09,0-2.83-1a.27.27,0,0,1-.15-.33.25.25,0,0,1,.32-.14l2.84,1a.26.26,0,0,1,.15.32A.27.27,0,0,1,82.38,81.37Z"/><path class="cls-3" d="M82.42,82.59h0l-2.87-.13a.25.25,0,0,1-.24-.26.25.25,0,0,1,.26-.24l2.88.13a.24.24,0,0,1,.23.26A.25.25,0,0,1,82.42,82.59Z"/><path class="cls-3" d="M115.55,79.1a.25.25,0,0,1-.09-.48l3.05-1.26a.23.23,0,0,1,.32.13.25.25,0,0,1-.13.33l-3,1.26Z"/><path class="cls-3" d="M115.68,80.06a.26.26,0,0,1-.25-.22.26.26,0,0,1,.22-.28l3.35-.48a.25.25,0,1,1,.07.5l-3.35.48Z"/><path class="cls-3" d="M124.44,93.62a.26.26,0,0,1-.19-.1l-2.18-2.66-3.43,2a.25.25,0,1,1-.25-.43L122,90.32a.25.25,0,0,1,.32.05l2.31,2.84a.25.25,0,0,1,0,.35A.25.25,0,0,1,124.44,93.62Z"/><path class="cls-3" d="M73.45,94.4a.2.2,0,0,1-.11,0,.24.24,0,0,1-.12-.33l1.57-3.18a.25.25,0,0,1,.27-.14l3.83.66a.25.25,0,0,1,.21.28.26.26,0,0,1-.29.21l-3.65-.62-1.49,3A.24.24,0,0,1,73.45,94.4Z"/><path class="cls-5" d="M79.16,90.56h-.09c-1.33-.48-3.5-1.26-3.7-1.3a.23.23,0,0,1-.23-.24.27.27,0,0,1,.27-.25,37.72,37.72,0,0,1,3.83,1.32.25.25,0,0,1-.08.48Z"/><path class="cls-5" d="M119.21,91.17a.26.26,0,0,1-.22-.12.26.26,0,0,1,.1-.34l3-1.7a.25.25,0,0,1,.34.09.25.25,0,0,1-.1.34l-3,1.7A.31.31,0,0,1,119.21,91.17Z"/><path class="cls-5" d="M98,96.71a.2.2,0,0,1-.11,0,.24.24,0,0,1-.12-.33L99,93.89l-1.21-2.6a.18.18,0,0,1,0-.1L97.6,65.34a.25.25,0,0,1,.25-.25h0a.25.25,0,0,1,.25.25l.14,25.79,1.24,2.65a.24.24,0,0,1,0,.22l-1.26,2.57A.24.24,0,0,1,98,96.71Z"/><path class="cls-3" d="M101.86,91.83h0l-8.79-.48a.25.25,0,0,1-.25-.25.25.25,0,0,1,.25-.25l8.82.48a.25.25,0,0,1,0,.5Z"/><path class="cls-3" d="M93,94.16s10-.72,13.66-1a.25.25,0,1,1,0,.5l-6.84.51c-4.23.32-5.93.44-6.62.44-.46,0-.47,0-.49-.15Z"/><path class="cls-5" d="M111.92,104.27l-1.62-8.88-12.08.93L88.05,97.46,87,104.27s-2.9,22.32-.11,41.83H95.1l4.35-32.86,4,32.87,8.17-.07C114.36,126.52,111.92,104.27,111.92,104.27Z"/><path class="cls-3" d="M90.13,98.1a.25.25,0,0,0-.27.23L89.58,102l-2.13,3.39a.26.26,0,0,0,.08.35.33.33,0,0,0,.13,0,.27.27,0,0,0,.22-.12L90,102.18a.36.36,0,0,0,0-.11l.28-3.7A.26.26,0,0,0,90.13,98.1Z"/><path class="cls-3" d="M111.43,104.26l-2.2-3.25-.32-4.54a.24.24,0,0,0-.27-.23.25.25,0,0,0-.23.26l.33,4.61a.2.2,0,0,0,0,.13l2.23,3.3a.26.26,0,0,0,.21.11.23.23,0,0,0,.14,0A.25.25,0,0,0,111.43,104.26Z"/><path class="cls-3" d="M99.32,98.79a.25.25,0,0,0-.25-.25h0a.25.25,0,0,0-.25.25l0,6a.25.25,0,0,0,.25.25h0a.25.25,0,0,0,.25-.25Z"/><path class="cls-3" d="M100.16,98.28h0a.26.26,0,0,0-.25.26l.19,8.84-.82,1.31a.25.25,0,0,0,.08.35.28.28,0,0,0,.13,0,.26.26,0,0,0,.21-.11l.86-1.38a.22.22,0,0,0,0-.13l-.19-8.92A.25.25,0,0,0,100.16,98.28Z"/><path class="cls-3" d="M99.51,109.37h0a.25.25,0,0,0-.25.25l0,1a.25.25,0,0,0,.25.24h0a.25.25,0,0,0,.25-.25l0-1A.24.24,0,0,0,99.51,109.37Z"/></svg>