<svg id="Layer_2" data-name="Layer 2" xmlns="http://www.w3.org/2000/svg" viewBox="0 0 200.75 174.56"><defs><style>.cls-1{fill:#e3d072;}.cls-2{fill:#fff;}</style></defs><title>cha-05</title><path class="cls-1" d="M78.38,102.2,70.6,123.42a.85.85,0,0,1-1.17.48l-1.6-.74a.86.86,0,0,0-1.14.4l-5.22,10.65a.86.86,0,0,0,.39,1.15l10,4.81a.85.85,0,0,0,1.22-.67l1.63-13a.87.87,0,0,0-.52-.9l-1.74-.71a.87.87,0,0,1-.49-1.06l7.22-21.75Z"/><path class="cls-2" d="M72.09,131l-2.81-.72c.12-.32.23-.65.34-1l.58.23a.25.25,0,0,0,.12,0H72a.34.34,0,0,0,.35-.35.35.35,0,0,0-.35-.35H70.39l-.53-.21.48-1.36a.34.34,0,0,0-.22-.44.34.34,0,0,0-.44.21c0,.07-.22.6-.47,1.34l-1.6-.64.86-1.94a.35.35,0,1,0-.64-.28l-.87,2-.17-.07a.35.35,0,0,0-.46.2.35.35,0,0,0,.2.45l.14.06-.45,1-.09-.05a.36.36,0,0,0-.47.17.35.35,0,0,0,.17.47l.1.05-.32.72-.26-.16A.35.35,0,0,0,65,131l.34.22-1,2.19a.36.36,0,0,0,.17.47l.14,0a.34.34,0,0,0,.32-.21l.94-2.11,1.78,1.13c-.29.82-.5,1.41-.51,1.45a.34.34,0,0,0,.22.44l.11,0a.35.35,0,0,0,.33-.24s.19-.55.45-1.29l1.77,1.12-1.14,2.11a.36.36,0,0,0,.14.48.33.33,0,0,0,.17,0,.37.37,0,0,0,.31-.19l1.12-2.07.69.44a.32.32,0,0,0,.19.05.33.33,0,0,0,.29-.16.34.34,0,0,0-.11-.48L71,134l1.31-2.42a.37.37,0,0,0,0-.31A.35.35,0,0,0,72.09,131Zm-4.77-2.6,1.65.66c-.12.33-.24.68-.37,1l-.84-.22-.91-.42Zm-1.11,2.51.36-.81,1,.45.85.22L67.93,132Zm4.2,2.65-1.87-1.18c.16-.44.33-.93.51-1.44l2.43.63Z"/><path class="cls-2" d="M73.31,127.81a.35.35,0,0,0-.43.25l-.49,1.9a.35.35,0,0,0,.25.43h.08a.34.34,0,0,0,.34-.26l.5-1.9A.35.35,0,0,0,73.31,127.81Z"/></svg>