<svg id="Layer_2" data-name="Layer 2" xmlns="http://www.w3.org/2000/svg" viewBox="0 0 200.75 174.56"><defs><style>.cls-1{fill:#2d65b8;}.cls-2{fill:#fff;}</style></defs><title>cha-18-hand</title><path class="cls-1" d="M68.4,119.2a.5.5,0,0,1-.26-.08.5.5,0,0,1-.16-.69C78.21,102,78.32,101.92,78.44,101.84a.51.51,0,0,1,.7.14.52.52,0,0,1,0,.61c-.41.56-6.35,10.07-10.27,16.37A.52.52,0,0,1,68.4,119.2Z"/><path class="cls-1" d="M65,116.52l-8.41,8.58a.9.9,0,0,0,.13,1.38l8.52,5.76a.9.9,0,0,0,1.31-.35l5.14-10.31a.91.91,0,0,0-.26-1.12l-5.23-4A.9.9,0,0,0,65,116.52Z"/><path class="cls-2" d="M60.26,126a.5.5,0,0,1-.37-.84l5.4-5.93A.5.5,0,0,1,66,120l-5.4,5.93A.52.52,0,0,1,60.26,126Z"/><path class="cls-2" d="M62.67,128a.47.47,0,0,1-.28-.09.5.5,0,0,1-.13-.7l3.8-5.54a.5.5,0,1,1,.83.57l-3.81,5.54A.5.5,0,0,1,62.67,128Z"/><path class="cls-2" d="M65.51,129a.54.54,0,0,1-.21,0,.5.5,0,0,1-.24-.67l3.23-6.7a.5.5,0,0,1,.9.44L66,128.7A.48.48,0,0,1,65.51,129Z"/></svg>