<svg id="Layer_2" data-name="Layer 2" xmlns="http://www.w3.org/2000/svg" viewBox="0 0 200.75 174.56"><defs><style>.cls-1{fill:#fff;}.cls-2{fill:#6da4f7;}</style></defs><title>cha-10</title><path class="cls-1" d="M92.76,158.69a.26.26,0,0,1-.22-.13l-2-3.44-1.69-1.28H82.78a.25.25,0,0,1,0-.5h6.16a.3.3,0,0,1,.15,0l1.79,1.36a.27.27,0,0,1,.07.08l2,3.48a.26.26,0,0,1-.09.35A.27.27,0,0,1,92.76,158.69Z"/><path class="cls-2" d="M96.63,159.71H93.44L90.6,155,89,153.82l-6.18-.1-1.85,1.15L81,156l7.66.41,1.46,3.35H78.73a.35.35,0,0,0-.35.35.35.35,0,0,0,.35.35h17.9a.35.35,0,0,0,.35-.35A.35.35,0,0,0,96.63,159.71Z"/><path class="cls-1" d="M104.85,158.69a.26.26,0,0,0,.22-.13l2-3.44,1.69-1.28h6.07a.25.25,0,1,0,0-.5h-6.16a.3.3,0,0,0-.15,0l-1.79,1.36a.27.27,0,0,0-.07.08l-2,3.48a.26.26,0,0,0,.09.35A.27.27,0,0,0,104.85,158.69Z"/><path class="cls-2" d="M101,159.71h3.19L107,155l1.64-1.21,6.18-.1,1.85,1.15-.06,1.08-7.66.41-1.46,3.35h11.38a.35.35,0,0,1,.35.35.35.35,0,0,1-.35.35H101a.35.35,0,0,1-.35-.35A.35.35,0,0,1,101,159.71Z"/></svg>