<svg id="Layer_2" data-name="Layer 2" xmlns="http://www.w3.org/2000/svg" viewBox="0 0 200.75 174.56"><defs><style>.cls-1{fill:#f1f1f1;}.cls-2{fill:#fff;}.cls-3{fill:#d3d3d3;stroke:#fff;stroke-linecap:round;stroke-linejoin:round;stroke-width:0.7px;}</style></defs><title>cha-12</title><path class="cls-1" d="M93.58,58.85l-.5.74a.86.86,0,0,1-.33.27c-1.17.52-7,3.15-8.34,4.51s-4.7,3.18-7.35,5.94a1.34,1.34,0,0,0,0,1.41c.43.75,1.51,7.94,6.7,9.72l.81.43.54-.81-.27,9.17a.59.59,0,0,1,0,.14l-.47,2.15a2,2,0,0,0,.22,1.78,19.48,19.48,0,0,0,1.34,1.58.79.79,0,0,1,.1.92l-.8,1.38a.79.79,0,0,0,0,.86L86.61,101a.81.81,0,0,0,.16.16l1.7,1.3a.78.78,0,0,0,.59.15l23-3.35a.77.77,0,0,0,.58-.42L114,96.26a.79.79,0,0,0,0-.69l-.84-1.85a.94.94,0,0,1-.07-.37l.59-12.07.53.37a.78.78,0,0,0,1-.09c1.54-1.57,6.43-6.66,8.09-9.3a.79.79,0,0,0-.24-1.06L118.25,68a.58.58,0,0,1-.12-.1c-.49-.5-4.28-4.33-5.95-5.24a54.24,54.24,0,0,0-6.2-2.43.67.67,0,0,1-.3-.19l-1.28-1.27a.79.79,0,0,0-1-.12L99.65,60.9a.78.78,0,0,1-.77,0L94.6,58.6A.79.79,0,0,0,93.58,58.85Z"/><path class="cls-2" d="M85.65,79.85a.24.24,0,0,0,.25-.21l.87-5.4a.3.3,0,0,0,0-.13l-2.59-6.65a.25.25,0,1,0-.47.19l2.57,6.58-.85,5.33a.25.25,0,0,0,.21.29Z"/><path class="cls-2" d="M97.8,62.86a.27.27,0,0,0,.12,0,.24.24,0,0,0,.22-.14.24.24,0,0,0-.1-.33l-4.11-2.16a.25.25,0,0,0-.34.1.26.26,0,0,0,.11.34Z"/><path class="cls-2" d="M104.67,60,100,62.31a.24.24,0,0,0-.12.33.24.24,0,0,0,.22.14.2.2,0,0,0,.11,0l4.65-2.26a.27.27,0,0,0,.12-.34A.26.26,0,0,0,104.67,60Z"/><path class="cls-2" d="M88.13,65l5.78,1.62H94l6.43-1.78a.26.26,0,0,0,.18-.31.25.25,0,0,0-.31-.17L94,66.16l-5.72-1.6a.25.25,0,0,0-.31.17A.26.26,0,0,0,88.13,65Z"/><path class="cls-2" d="M113.05,76h0a.25.25,0,0,0,.23-.27l-.92-11.19a.27.27,0,0,0-.27-.23.26.26,0,0,0-.23.27l.92,11.19A.25.25,0,0,0,113.05,76Z"/><path class="cls-2" d="M113.24,77.82a.26.26,0,0,0-.3-.19.25.25,0,0,0-.19.3l.32,1.51a.26.26,0,0,0,.25.2h.05a.24.24,0,0,0,.19-.29Z"/><path class="cls-2" d="M102.94,94.48a.75.75,0,0,0-.15,0c-3.19,0-16.86-1.49-17-1.51a.24.24,0,0,0-.28.22.26.26,0,0,0,.23.28c.57.06,13.83,1.51,17.05,1.51H103a.23.23,0,0,0,.24-.25A.25.25,0,0,0,102.94,94.48Z"/><path class="cls-2" d="M109,92.7l-2.11.38a.25.25,0,0,0,0,.5h0l2.1-.37a.25.25,0,1,0-.08-.5Z"/><path class="cls-2" d="M101,96.11l-9.89,1.67a.25.25,0,0,0-.2.29.26.26,0,0,0,.25.21h0l9.89-1.67a.25.25,0,0,0,.2-.29A.24.24,0,0,0,101,96.11Z"/><polygon class="cls-3" points="96.73 72.97 101.84 72.97 102.39 79.64 99.31 82.01 96.16 79.64 96.73 72.97"/></svg>