<svg id="Layer_2" data-name="Layer 2" xmlns="http://www.w3.org/2000/svg" viewBox="0 0 200.75 174.56"><defs><style>.cls-1{fill:#10a27b;}.cls-2{fill:#e3d072;}</style></defs><title>cha-15</title><path class="cls-1" d="M79.59,102.29l-.73-.55a.59.59,0,0,0-.87.19c-1,1.72-3.85,6.85-6,10a8.06,8.06,0,0,1-3.25,2.74c-3.37,1.54-10.88,5.79-12.63,13.59-2.28,10.13,4.08,14.75,9.11,12.89s10.43-8.87,9.41-23.56a12.12,12.12,0,0,1,.78-5.1A84,84,0,0,1,79.76,103,.6.6,0,0,0,79.59,102.29Zm-8.47,29.78c-3,6-5.3,8.19-9.1,7.11-4.2-1.19-4.16-7.87-4.16-7.87a17.92,17.92,0,0,1,4.33-9.06c3.71-4,6.5-5,8.89-3.89S74.17,125.92,71.12,132.07Z"/><path class="cls-1" d="M70.33,124.67l-1.28,1.8-2.58-1.8a13.52,13.52,0,0,1,1.6-1.94.35.35,0,0,0,0-.5.35.35,0,0,0-.49,0,14.21,14.21,0,0,0-1.71,2.07l-1.33-.93a.35.35,0,1,0-.4.58l1.32.92c-.59.84-1.24,1.78-1.88,2.75a9.65,9.65,0,0,0-1.34-.48.35.35,0,0,0-.35.35.35.35,0,0,0,.27.35c.09,0,.47.17,1,.38-.68,1-1.33,2.06-1.91,3l-.58-.21a.34.34,0,0,0-.45.21.34.34,0,0,0,.21.44l.44.16-1.45,2.34a.35.35,0,0,0,.12.48.37.37,0,0,0,.18,0,.35.35,0,0,0,.3-.17s.63-1,1.53-2.45l2.77,1c-1.23,1.72-2.16,3-2.33,3.19a.34.34,0,0,0-.13.33.35.35,0,0,0,.35.29h.06c.12,0,.22,0,2.74-3.55l.68.25.12,0a.35.35,0,0,0,.12-.68l-.49-.18,2-2.83,1.25.48.12,0a.36.36,0,0,0,.33-.23.35.35,0,0,0-.2-.45l-1.09-.41,1.28-1.8,1,.67a.31.31,0,0,0,.2.07.35.35,0,0,0,.2-.64l-1-.67,1.28-1.79a.36.36,0,0,0-.08-.49A.35.35,0,0,0,70.33,124.67Zm-5.52,7.74-2.82-1c.57-.91,1.23-1.93,1.9-3l3,1.13ZM67.27,129l-3-1.14c.6-.92,1.21-1.81,1.77-2.6l2.58,1.8Z"/><circle class="cls-2" cx="72.22" cy="115.63" r="0.97"/></svg>