<svg id="Layer_2" data-name="Layer 2" xmlns="http://www.w3.org/2000/svg" viewBox="0 0 200.75 174.56"><defs><style>.cls-1{fill:#f58d74;}.cls-2{fill:#fff;}.cls-3{fill:#6fa4f3;}.cls-4{fill:#6da4f7;}.cls-5{fill:#2d65b8;}.cls-6{fill:#38547b;}.cls-7{fill:#231f20;}</style></defs><title>cha-19</title><path class="cls-1" d="M86.76,35.74S83.62,52.11,95.21,55l-.7,7.05,9-.7L102.63,55s9.61-1.36,6.55-17.15S97.39,26.38,97.39,26.38L85.81,33.89Z"/><path class="cls-1" d="M86.92,40.58S85,38,83,39.23s-2.7,4.84-2.25,6.19,2.91,2.49,6.56-.55Z"/><path class="cls-2" d="M86.31,43.26,84.07,41a.4.4,0,0,0-.57,0,.39.39,0,0,0,0,.56l.76.77-1.32,1a.39.39,0,0,0-.07.56.4.4,0,0,0,.31.16.4.4,0,0,0,.25-.09l1.4-1.08.91.91a.39.39,0,0,0,.29.11.38.38,0,0,0,.28-.11A.4.4,0,0,0,86.31,43.26Z"/><path class="cls-1" d="M109.29,40.58s1.95-2.54,4-1.35,2.7,4.84,2.25,6.19-2.91,2.49-6.56-.55Z"/><path class="cls-2" d="M109.89,43.26,112.14,41a.4.4,0,1,1,.56.56l-.76.77,1.33,1a.41.41,0,0,1,.07.56.42.42,0,0,1-.32.16.38.38,0,0,1-.24-.09l-1.41-1.08-.91.91a.38.38,0,0,1-.28.11.39.39,0,0,1-.29-.11A.42.42,0,0,1,109.89,43.26Z"/><path class="cls-2" d="M90.68,42.82a.39.39,0,0,1-.37-.25.39.39,0,0,1,.21-.52l3.56-1.49a.4.4,0,0,1,.52.22.39.39,0,0,1-.21.52l-3.56,1.49A.4.4,0,0,1,90.68,42.82Z"/><path class="cls-2" d="M105.47,41.05h0l-4.18-.25a.42.42,0,0,1-.38-.43.38.38,0,0,1,.42-.37l4.19.25a.4.4,0,0,1,.38.42A.41.41,0,0,1,105.47,41.05Z"/><path class="cls-2" d="M91.49,48.83a1.19,1.19,0,0,1-.37-.06,1.67,1.67,0,0,1-1-1.49,1.92,1.92,0,0,1,1-2.12.23.23,0,0,1,.32.13.25.25,0,0,1-.13.33,1.43,1.43,0,0,0-.69,1.59,1.23,1.23,0,0,0,.68,1.09.63.63,0,0,0,.63-.14c.38-.38,1-1.13,1.2-1.41-.09-.22-.25-.48-.39-.49h0c-.2,0-.54.34-.71.59a.25.25,0,0,1-.35.06.24.24,0,0,1-.06-.34c.09-.14.59-.81,1.12-.81h0c.59,0,.86.87.89,1a.22.22,0,0,1,0,.22,20.09,20.09,0,0,1-1.32,1.56A1.1,1.1,0,0,1,91.49,48.83Z"/><path class="cls-2" d="M105.66,48.85c-.4,0-1.51-1.21-1.69-2a2.5,2.5,0,0,1,0-1.42c.09-.28,1.93-.84,2-.84a.25.25,0,0,1,0,.49c-.16,0-1.25.45-1.56.59a2.28,2.28,0,0,0,0,1.06,3.7,3.7,0,0,0,1.21,1.59c.55-.11,2-.54,2-.87a2.66,2.66,0,0,0-.21-1.26l-1,0c-.09.13-.28.41-.43.65a.24.24,0,0,1-.34.08.24.24,0,0,1-.08-.34c.51-.83.56-.84.65-.87a5.63,5.63,0,0,1,1.4,0,.23.23,0,0,1,.21.14,3.33,3.33,0,0,1,.31,1.72c-.2.83-2.5,1.26-2.52,1.26Z"/><path class="cls-3" d="M90.89,36.18s-.88.12-1,.43,3.79,2,4.22,1.73-.13-1.7-.9-2A6,6,0,0,0,90.89,36.18Z"/><path class="cls-3" d="M100.66,37.91s.16-1.95,1.62-2.25,3.26-.5,2.7.16S100.76,38.77,100.66,37.91Z"/><path class="cls-2" d="M100.74,50.7l-.69-.34.49-.23a.4.4,0,0,0,.19-.53.39.39,0,0,0-.53-.19c-3.69,1.71-3.74,1.74-3.77,1.76a.42.42,0,0,0-.13.57.41.41,0,0,0,.33.18.33.33,0,0,0,.21-.07l2.28-1.06,1.27.62a.41.41,0,0,0,.18.05.39.39,0,0,0,.35-.23A.39.39,0,0,0,100.74,50.7Z"/><path class="cls-2" d="M100.29,55.41c-1.26.13-2.57.13-2.58.13a.25.25,0,0,0,0,.5s1.34,0,2.63-.13a.26.26,0,0,0,.23-.28A.25.25,0,0,0,100.29,55.41Z"/><path class="cls-2" d="M100.12,56.34a11.44,11.44,0,0,1-2.48.1.23.23,0,0,0-.26.23.26.26,0,0,0,.23.27s.48,0,1,0a6.77,6.77,0,0,0,1.64-.14.25.25,0,1,0-.13-.48Z"/><path class="cls-1" d="M122.49,80.32c-6.3-20-20.74-21-20.74-21l-1.88-.53c0-.27,0-.42,0-.42l-.74.21-.74-.21v.42l-1.88.53s-14.44,1-20.74,21c0,0-5.5,16.35-2.71,25.36,0,0,1.32,5.79,6.67,3.52a4.61,4.61,0,0,0,1.39-5.28l-.81-1.46s2-4.47-1.39-5.35c0,0-.15-6.89,1.61-10.26S86,75.78,88.28,74.31c0,0-.25,20.28-.25,23.29s.48,7.41-.25,11.81-1.4,30.83-.67,36.47a28.21,28.21,0,0,1-1.61,4.84c-1,2-2.79,4.32-2.79,5.57,0,0-3.95.58-3.88,2.64s3.88,1.24,3.88,1.24l9.46-.15s3.66,0,3.59-3.07-1.17-5.21-1-11.51,2.28-32.48,4-37.47a10.49,10.49,0,0,0,.34-1.76,9.55,9.55,0,0,0,.34,1.76c1.69,5,3.75,31.17,4,37.47s-.88,8.43-1,11.51,3.59,3.07,3.59,3.07l9.45.15s3.81.81,3.89-1.24-3.89-2.64-3.89-2.64c0-1.25-1.83-3.59-2.78-5.57a28.21,28.21,0,0,1-1.61-4.84c.73-5.64.06-32.07-.67-36.47s-.25-8.81-.25-11.81S110,74.31,110,74.31c2.27,1.47,6,9.16,7.76,12.54s1.62,10.26,1.62,10.26c-3.37.88-1.4,5.35-1.4,5.35l-.8,1.46a4.61,4.61,0,0,0,1.39,5.28c5.35,2.27,6.67-3.52,6.67-3.52C128,96.67,122.49,80.32,122.49,80.32Z"/><circle class="cls-2" cx="93.78" cy="76.48" r="0.71"/><circle class="cls-2" cx="105" cy="76" r="0.69"/><path class="cls-2" d="M80.13,102.23l-1.4.12c-.41-.89-.84-1.84-.89-2a.25.25,0,0,0-.25-.2.25.25,0,0,0-.25.25,14.16,14.16,0,0,0,1,2.3.25.25,0,0,0,.22.15h0l1.58-.14a.25.25,0,0,0,.23-.27A.24.24,0,0,0,80.13,102.23Z"/><path class="cls-2" d="M121.2,100.9a.26.26,0,0,0-.36,0l-1.23,1.51H118a.25.25,0,0,0,0,.5h1.71a.25.25,0,0,0,.2-.09l1.3-1.61A.25.25,0,0,0,121.2,100.9Z"/><path class="cls-2" d="M100.3,92.45l.66-1.16a.25.25,0,1,0-.43-.25l-.6,1L98.8,91a.25.25,0,0,0-.36,0,.25.25,0,0,0,0,.35l1.22,1.2-.45.79a.25.25,0,0,0,.09.34.31.31,0,0,0,.13,0,.24.24,0,0,0,.22-.13l.38-.67.56.54a.23.23,0,0,0,.17.07.26.26,0,0,0,.18-.43Z"/><path class="cls-2" d="M106.1,72.12,104,71.69a.24.24,0,0,0-.29.19.25.25,0,0,0,.19.3l2.15.43h0a.24.24,0,0,0,.24-.2A.25.25,0,0,0,106.1,72.12Z"/><path class="cls-2" d="M94.22,72.41a.25.25,0,0,0-.34-.1l-1.88,1a.24.24,0,0,0-.1.33.24.24,0,0,0,.22.13.27.27,0,0,0,.12,0l1.88-1A.26.26,0,0,0,94.22,72.41Z"/><path class="cls-2" d="M78.65,85.21a.25.25,0,0,0,.21-.1L80,83.45a.25.25,0,1,0-.41-.29l-1.17,1.66a.25.25,0,0,0,.06.35A.23.23,0,0,0,78.65,85.21Z"/><path class="cls-2" d="M119.21,83.33a.24.24,0,0,0,.22.14l.12,0a.26.26,0,0,0,.11-.34l-.74-1.47a.25.25,0,0,0-.33-.11.23.23,0,0,0-.11.33Z"/><path class="cls-2" d="M105.26,147.67a.25.25,0,0,0-.2.29l.33,1.87-1,1.34a.26.26,0,0,0,0,.29l.93,1.35a.24.24,0,0,0,.2.11.42.42,0,0,0,.15,0,.25.25,0,0,0,.06-.35l-.83-1.21.91-1.29a.28.28,0,0,0,0-.18l-.35-2A.24.24,0,0,0,105.26,147.67Z"/><path class="cls-2" d="M92.9,149.19l.41-2.07a.24.24,0,0,0-.2-.29.25.25,0,0,0-.29.19l-.42,2.16a.2.2,0,0,0,0,.17l.88,1.6-.51,1.44a.25.25,0,0,0,.15.32l.09,0a.25.25,0,0,0,.23-.17L93.8,151a.23.23,0,0,0,0-.2Z"/><path class="cls-2" d="M112.2,157.5l-.8,0a.26.26,0,0,0-.24.27.25.25,0,0,0,.25.23h0l.81,0a.25.25,0,0,0,.24-.26A.27.27,0,0,0,112.2,157.5Z"/><path class="cls-2" d="M114.19,157.67l-.89-.1a.25.25,0,0,0-.06.49l.89.11h0a.25.25,0,0,0,0-.5Z"/><path class="cls-2" d="M115.83,157.63l-.62.06a.25.25,0,0,0-.22.27.25.25,0,0,0,.25.23h0l.62-.06a.26.26,0,0,0,.23-.28A.25.25,0,0,0,115.83,157.63Z"/><path class="cls-2" d="M118.21,157.5l-1,.13a.25.25,0,0,0,0,.5h0l1-.12a.26.26,0,0,0,.22-.28A.25.25,0,0,0,118.21,157.5Z"/><path class="cls-2" d="M82.2,157.44h-1a.25.25,0,0,0,0,.5h1a.25.25,0,0,0,0-.5Z"/><path class="cls-2" d="M84.31,157.61a8.19,8.19,0,0,0-1.06-.06.24.24,0,0,0-.2.28.26.26,0,0,0,.28.21c.07,0,.55,0,.93.07h0a.26.26,0,0,0,.25-.23A.25.25,0,0,0,84.31,157.61Z"/><path class="cls-2" d="M86,157.48l-.77.09a.23.23,0,0,0-.22.27.24.24,0,0,0,.25.22h0L86,158a.24.24,0,0,0,.22-.27A.25.25,0,0,0,86,157.48Z"/><path class="cls-2" d="M87.9,157.5l-.87,0a.25.25,0,0,0,0,.5l.87,0h0a.25.25,0,0,0,.25-.24A.26.26,0,0,0,87.9,157.5Z"/><path class="cls-2" d="M109.53,128.33a.25.25,0,0,0-.36,0,.24.24,0,0,0,0,.35l.49.52-.39.85-1.15-.16.46-2.39,1.07-.17a.25.25,0,0,0,.24-.25.25.25,0,0,0-.25-.25s-.09,0-1.31.21a.23.23,0,0,0-.2.19l-.55,2.82a.26.26,0,0,0,.21.3l1.59.22h0a.25.25,0,0,0,.22-.15l.55-1.18a.27.27,0,0,0,0-.28Z"/><path class="cls-2" d="M89.47,127c-1.23-.21-1.29-.21-1.32-.21a.24.24,0,0,0-.24.24.25.25,0,0,0,.23.26c.07,0,.57.09,1.07.17l.46,2.39-1.14.16-.4-.85.5-.52a.25.25,0,0,0,0-.35.24.24,0,0,0-.35,0l-.62.63a.24.24,0,0,0,0,.28l.54,1.18a.25.25,0,0,0,.23.15h0l1.59-.22a.25.25,0,0,0,.17-.11.21.21,0,0,0,0-.19l-.54-2.82A.23.23,0,0,0,89.47,127Z"/><path class="cls-3" d="M113.22,22.67c-1.53-2.44-5.71-5.67-5.71-5.67-3.59-.63-12.05,1-14,1.35a.3.3,0,0,1-.36-.31c0-.55.06-1.52-.19-1.72s-1.87,2.27-2.38,3a1.91,1.91,0,0,0,0,1.75,6.58,6.58,0,0,0-2-.87c-1.38-.43-6.75,5.1-8,6.93s-1.83,7.46-.59,7.14a3,3,0,0,1,2.23.35l4.19,3.84a.37.37,0,0,0,.61-.2l.89-4.7s2.81-3.4,2.85-3.34c1.94,2.89,6,3.18,7.65,3.17a.53.53,0,0,0,.51-.65l-.38-1.62L98.9,31l2,2.27a.51.51,0,0,0,.38.16.49.49,0,0,0,.37-.83l-1.9-2.14.43-.26,2.23,2.5a.51.51,0,0,0,.37.17.46.46,0,0,0,.33-.13.49.49,0,0,0,0-.7l-2.12-2.38.4-.25A43.37,43.37,0,0,0,107.61,34a1.72,1.72,0,0,1,.79,1.26c.21,1.55.65,4.7.85,4.08.27-.82,4.24-5.79,5.59-5.48.33.08,1.13.4,1.13.4A21.23,21.23,0,0,0,113.22,22.67Z"/><path class="cls-2" d="M92.66,20.64l-2.21,1.82a.23.23,0,0,0-.09.22.26.26,0,0,0,.13.19l1.9,1a.27.27,0,0,0,.12,0,.25.25,0,0,0,.22-.13.25.25,0,0,0-.1-.34l-1.57-.83L93,21a.25.25,0,0,0,0-.35A.24.24,0,0,0,92.66,20.64Z"/><path class="cls-2" d="M86.73,23.42a.27.27,0,0,0,.12,0l1.86-1a.25.25,0,1,0-.24-.43l-1.86,1a.25.25,0,0,0,.12.47Z"/><path class="cls-2" d="M88.67,23.13,87.2,26.49a.27.27,0,0,0,.13.33l.1,0a.25.25,0,0,0,.23-.15l1.47-3.36A.27.27,0,0,0,89,23,.26.26,0,0,0,88.67,23.13Z"/><path class="cls-2" d="M90,24.21a.25.25,0,0,0-.13-.32.24.24,0,0,0-.33.13l-.91,2.16a.28.28,0,0,0,0,.2l1,2.38a.25.25,0,0,0,.23.15l.1,0a.24.24,0,0,0,.13-.32l-.93-2.29Z"/><path class="cls-2" d="M88,29.6c-.11,0-.19,0-1.48,1.2a.24.24,0,0,0-.08.19l.06,1.8a.26.26,0,0,0,.25.24h0a.25.25,0,0,0,.24-.26L87,31.08c.48-.44,1-.91,1.14-1a.27.27,0,0,0,.16-.24A.25.25,0,0,0,88,29.6Z"/><path class="cls-2" d="M85.38,30.82a.25.25,0,0,0-.27.23l-.09,1a.26.26,0,0,0,.23.27h0a.26.26,0,0,0,.25-.23l.09-1A.25.25,0,0,0,85.38,30.82Z"/><path class="cls-2" d="M95.46,28.32a.26.26,0,0,0-.35.09.26.26,0,0,0,.09.34l1,.55a.2.2,0,0,0,.13,0,.25.25,0,0,0,.12-.47Z"/><path class="cls-2" d="M103.78,25.08a.24.24,0,0,0-.35,0,.25.25,0,0,0,0,.35l2.38,1.92a.22.22,0,0,0,.15.06.23.23,0,0,0,.2-.1.24.24,0,0,0,0-.35Z"/><path class="cls-2" d="M104.69,23.42a.26.26,0,0,0,.25-.2.25.25,0,0,0-.19-.29l-2.69-.58a.24.24,0,0,0-.29.19.25.25,0,0,0,.19.3l2.68.58Z"/><path class="cls-2" d="M106,20.52l2.59.37h0a.24.24,0,0,0,.24-.22.25.25,0,0,0-.21-.28L106,20a.25.25,0,0,0-.07.49Z"/><path class="cls-2" d="M111.07,24.63l-2.47-1.46a.25.25,0,0,0-.25.43l2.47,1.46a.2.2,0,0,0,.13,0,.27.27,0,0,0,.21-.12A.26.26,0,0,0,111.07,24.63Z"/><path class="cls-2" d="M109.12,26.75a.26.26,0,0,0-.36,0,.25.25,0,0,0,0,.35l1.4,1.53a.27.27,0,0,0,.19.08.2.2,0,0,0,.16-.07.24.24,0,0,0,0-.35Z"/><path class="cls-4" d="M92.8,60.15l.8-1.06a.72.72,0,0,1,.88-.23l4,1.76a.73.73,0,0,1,.43.8l-.22,1.29,1.07-.19-.46-1.65a.73.73,0,0,1,.32-.82l2.85-1.78a.75.75,0,0,1,.79,0l2,1.28-.14.6,8.38,2.11a.76.76,0,0,1,.45.33l10.33,16.94a.8.8,0,0,1,.11.34l1.38,14.4a.26.26,0,0,1-.17.27l-6.2,2a.3.3,0,0,1-.39-.17l-5.65-15a.28.28,0,0,0-.4-.14l-1.33.76a.71.71,0,0,0-.36.59c-.1,1.55-.45,7.21-.21,7.73a7.1,7.1,0,0,0,.58,1,.71.71,0,0,1,.1.63l-1.33,4.39a.72.72,0,0,1-.61.51l-21,2.59a.74.74,0,0,1-.63-.23l-.69-.74a.76.76,0,0,1-.18-.66l.54-2.37a.74.74,0,0,0-.1-.58l-1.41-2.08a.71.71,0,0,1-.12-.45l.35-6.08a.77.77,0,0,0-.06-.33l-1.22-3a.28.28,0,0,0-.52,0L79.1,95.38l-.12.07L72.51,95a.32.32,0,0,1-.29-.33l1.39-17.11a.69.69,0,0,1,.18-.43L86.2,62.41a.7.7,0,0,1,.35-.23l5.87-1.77A.84.84,0,0,0,92.8,60.15Z"/><path class="cls-2" d="M95.83,65.4h0a.21.21,0,0,1-.18-.1L92.57,60.8a.26.26,0,0,1,.07-.35.25.25,0,0,1,.35.07l2.88,4.24L97,63.7a.25.25,0,0,1,.35,0,.24.24,0,0,1,0,.35L96,65.33A.29.29,0,0,1,95.83,65.4Z"/><path class="cls-2" d="M102.24,65.26a.21.21,0,0,1-.18-.08l-1.44-1.57a.24.24,0,0,1,0-.35.26.26,0,0,1,.36,0l1.21,1.32,2.4-4.07a.25.25,0,0,1,.43.25l-2.58,4.36a.25.25,0,0,1-.18.12Z"/><path class="cls-2" d="M99.32,97.21h-.08a.25.25,0,0,1-.16-.31l.89-2.78-1.35-2.75a.19.19,0,0,1,0-.1l-.35-24.93a.25.25,0,0,1,.05-.15l1.3-1.87a.26.26,0,0,1,.35-.07.25.25,0,0,1,.06.35L98.74,66.4l.35,24.79L100.46,94a.23.23,0,0,1,0,.18L99.56,97A.25.25,0,0,1,99.32,97.21Z"/><path class="cls-2" d="M112.57,78.69a.26.26,0,0,1-.25-.24L112,70.61l1-6.11a.26.26,0,0,1,.29-.21.25.25,0,0,1,.21.28l-1,6.06.35,7.8a.25.25,0,0,1-.24.26Z"/><path class="cls-2" d="M86.11,70.89a.26.26,0,0,1-.25-.24l-.26-5.54a.26.26,0,0,1,.24-.26.25.25,0,0,1,.26.24l.26,5.54a.25.25,0,0,1-.24.26Z"/><path class="cls-2" d="M85.28,82.09h0a.26.26,0,0,1-.2-.29l1-6.15a.25.25,0,0,1,.5.09l-1,6.14A.26.26,0,0,1,85.28,82.09Z"/><path class="cls-2" d="M82.32,81.92l-.09,0L79.4,80.85a.25.25,0,0,1-.15-.32.26.26,0,0,1,.32-.15l2.84,1.05a.26.26,0,0,1,.15.32A.27.27,0,0,1,82.32,81.92Z"/><path class="cls-2" d="M82.36,83.14h0L79.48,83a.24.24,0,0,1-.24-.26.25.25,0,0,1,.26-.23l2.88.13a.24.24,0,0,1,.23.26A.25.25,0,0,1,82.36,83.14Z"/><path class="cls-2" d="M115.49,79.65a.25.25,0,0,1-.09-.48l3-1.27a.25.25,0,0,1,.19.47l-3,1.26Z"/><path class="cls-2" d="M115.62,80.61a.26.26,0,0,1-.25-.22.26.26,0,0,1,.22-.28l3.35-.48a.25.25,0,1,1,.07.5l-3.35.48Z"/><path class="cls-2" d="M124.38,94.16a.25.25,0,0,1-.19-.09L122,91.4l-3.43,2a.25.25,0,1,1-.25-.43l3.62-2.1a.26.26,0,0,1,.32.06l2.31,2.84a.25.25,0,0,1,0,.35A.24.24,0,0,1,124.38,94.16Z"/><path class="cls-2" d="M73.39,95a.2.2,0,0,1-.11,0,.24.24,0,0,1-.12-.33l1.57-3.18a.25.25,0,0,1,.27-.14l3.83.65a.26.26,0,0,1,.21.29.26.26,0,0,1-.29.21l-3.65-.63-1.49,3A.24.24,0,0,1,73.39,95Z"/><path class="cls-5" d="M79.1,91.11H79c-1.33-.48-3.5-1.26-3.7-1.3a.23.23,0,0,1-.23-.25.27.27,0,0,1,.27-.25,37.52,37.52,0,0,1,3.83,1.33.25.25,0,0,1-.08.48Z"/><path class="cls-5" d="M119.15,91.72a.26.26,0,0,1-.22-.12.27.27,0,0,1,.1-.35l3-1.7a.26.26,0,0,1,.34.1.25.25,0,0,1-.1.34l-3,1.7A.31.31,0,0,1,119.15,91.72Z"/><path class="cls-5" d="M97.93,97.26a.2.2,0,0,1-.11,0,.24.24,0,0,1-.12-.33l1.21-2.47L97.7,91.84a.18.18,0,0,1,0-.1l-.14-25.85a.25.25,0,0,1,.25-.25h0a.25.25,0,0,1,.25.25l.14,25.79,1.24,2.65a.24.24,0,0,1,0,.22l-1.26,2.57A.24.24,0,0,1,97.93,97.26Z"/><path class="cls-2" d="M101.8,92.38h0L93,91.9a.25.25,0,0,1-.25-.25A.25.25,0,0,1,93,91.4l8.82.48a.23.23,0,0,1,.23.26A.25.25,0,0,1,101.8,92.38Z"/><path class="cls-2" d="M92.92,94.71s10-.72,13.66-1a.25.25,0,1,1,0,.5l-6.84.51c-4.23.32-5.93.44-6.62.44-.46,0-.47-.06-.49-.15Z"/><path class="cls-6" d="M127.69,85.54c-.63-2.29-1.88-8-1.88-8l-6.17-8.81-.07-6.87-7.9-1.31-3,8L99.4,79.21,90.12,68.55l-3-8-7.91,1.31-.07,6.87L73,77.57s-1.25,5.68-1.87,8-3.26,18.38-.56,24,10.27,4,10.27,4l4.38-6.41a2,2,0,0,0-.17-2.43l-2.27-2.46.17-2.85-3.08-4.13,4.92-9.88,1.87,12.9-.9,14.29-2,16.16.41,12.55L83,153.09l-4.64,4.3a2.27,2.27,0,0,0-.28,2,1.83,1.83,0,0,0,1.6,1.32l15.74-.28s2.15-.55,1-4.85l.48-22.4L99.4,114.1l2.49,19.09.48,22.4c-1.18,4.3,1,4.85,1,4.85l15.75.28a1.81,1.81,0,0,0,1.59-1.32,2.27,2.27,0,0,0-.28-2l-4.64-4.3-1.11-11.79.41-12.55-2-16.16-.9-14.29L114,85.4l4.79,10.34-3,3.67.18,2.85-2.27,2.46a2,2,0,0,0-.18,2.43l4.39,6.41s7.56,1.6,10.26-4S128.31,87.83,127.69,85.54Z"/><path class="cls-2" d="M114.22,80.35h0a.26.26,0,0,1-.19-.3L116,70.9a.25.25,0,0,1,.3-.19.26.26,0,0,1,.19.3l-2.06,9.15A.26.26,0,0,1,114.22,80.35Z"/><path class="cls-2" d="M119.55,93.92a.26.26,0,0,1-.22-.14.25.25,0,0,1,.11-.34l8.24-4a.24.24,0,0,1,.33.12.25.25,0,0,1-.11.33l-8.24,4A.23.23,0,0,1,119.55,93.92Z"/><path class="cls-2" d="M119,104.47l-.08,0-3.12-1a.25.25,0,0,1,.16-.48l2.89,1,1.67-4.59a.25.25,0,1,1,.47.17l-1.76,4.82A.25.25,0,0,1,119,104.47Z"/><path class="cls-2" d="M121.06,105.77a.27.27,0,0,1-.19-.08l-1.66-1.91a.25.25,0,0,1,0-.36.25.25,0,0,1,.35,0l1.66,1.91a.25.25,0,0,1-.19.41Z"/><path class="cls-2" d="M79.38,94a.24.24,0,0,0,.22-.14.25.25,0,0,0-.11-.33l-8.24-4a.26.26,0,0,0-.34.11A.25.25,0,0,0,71,90l8.24,4Z"/><path class="cls-2" d="M79.76,104.47l.08,0,3.11-1a.26.26,0,0,0,.16-.32.26.26,0,0,0-.32-.16l-2.88,1-1.68-4.59a.24.24,0,0,0-.32-.15.26.26,0,0,0-.15.32l1.76,4.82A.27.27,0,0,0,79.76,104.47Z"/><path class="cls-2" d="M77.7,105.77a.27.27,0,0,0,.19-.08l1.66-1.91a.26.26,0,0,0,0-.36.25.25,0,0,0-.35,0l-1.66,1.91a.25.25,0,0,0,0,.35A.27.27,0,0,0,77.7,105.77Z"/><path class="cls-2" d="M84.88,85.48a.25.25,0,0,1-.24-.21l-1.56-8.44a.26.26,0,0,1,.2-.29.25.25,0,0,1,.29.2l1.56,8.44a.24.24,0,0,1-.2.29Z"/><path class="cls-2" d="M94.67,76a.23.23,0,0,1-.14,0L84.12,68.46l-4,.88a.25.25,0,0,1-.3-.19.25.25,0,0,1,.19-.3l4.07-.91a.28.28,0,0,1,.2,0l10.5,7.59a.25.25,0,0,1,.06.35A.25.25,0,0,1,94.67,76Z"/><path class="cls-2" d="M103.24,77.51a.27.27,0,0,0,.14-.07l9.19-9,4.05.29a.24.24,0,0,0,.26-.23.25.25,0,0,0-.23-.27L112.49,68a.23.23,0,0,0-.19.07l-9.27,9a.25.25,0,0,0,0,.36A.24.24,0,0,0,103.24,77.51Z"/><path class="cls-2" d="M112.57,93h0l-26.93-1.2a.26.26,0,0,1-.24-.27.22.22,0,0,1,.26-.23l26.93,1.2a.25.25,0,0,1,0,.5Z"/><path class="cls-2" d="M86.84,99a.26.26,0,0,1-.25-.24.26.26,0,0,1,.25-.26l25-.6a.23.23,0,0,1,.25.24.25.25,0,0,1-.24.26l-25,.6Z"/><path class="cls-2" d="M102.67,129.44a.26.26,0,0,1-.25-.22c-.21-1.51-.91-6.46-.91-6.67a.26.26,0,0,1,.25-.25.25.25,0,0,1,.25.25c0,.23.55,4.07.91,6.6a.25.25,0,0,1-.22.28Zm-.66-6.89h0Z"/><path class="cls-2" d="M103.27,154.66a.25.25,0,0,1-.25-.25l-.15-18.64a.25.25,0,0,1,.25-.25h0a.25.25,0,0,1,.25.25l.15,18.63a.26.26,0,0,1-.25.26Z"/><path class="cls-2" d="M103.12,134.21a.25.25,0,0,1-.25-.25c0-.11-.18-.88-.34-1.55a.26.26,0,0,1,.13-.29l9-4.22a.27.27,0,0,1,.23,0l3,1.86a.25.25,0,0,1-.26.42l-2.9-1.79-8.74,4.08c.13.56.31,1.33.31,1.47A.25.25,0,0,1,103.12,134.21Z"/><path class="cls-2" d="M95.64,131.6h0a.25.25,0,0,1-.2-.29l1.81-8.9a.25.25,0,0,1,.49.1l-1.81,8.9A.26.26,0,0,1,95.64,131.6Z"/><path class="cls-2" d="M93.48,133.2a.28.28,0,0,1-.13,0l-2-1.1-5.29-4.79-2,1.07a.25.25,0,0,1-.24-.44L86,126.76a.24.24,0,0,1,.29,0l5.37,4.87,2,1.07a.25.25,0,0,1,.09.34A.23.23,0,0,1,93.48,133.2Z"/><path class="cls-2" d="M95,133.41a.27.27,0,0,1-.25-.22.25.25,0,0,1,.22-.28l1.21-.15a.25.25,0,0,1,.28.21.25.25,0,0,1-.22.28L95,133.4Z"/><path class="cls-2" d="M95.46,155a.26.26,0,0,1-.25-.25l-.3-20.25a.25.25,0,0,1,.25-.25h0a.25.25,0,0,1,.25.25l.3,20.24a.24.24,0,0,1-.24.26Z"/><path class="cls-2" d="M91.21,94.87a.26.26,0,0,1-.25-.24.26.26,0,0,1,.25-.26l5-.1h0a.25.25,0,0,1,0,.5l-5,.1Z"/><path class="cls-2" d="M92.27,96.33a.26.26,0,0,1-.25-.24.24.24,0,0,1,.24-.26l4-.2a.23.23,0,0,1,.26.23.26.26,0,0,1-.24.27l-4,.2Z"/><path class="cls-2" d="M80.16,84.37a.25.25,0,0,1-.16-.06L77.39,82.1a.25.25,0,1,1,.32-.38l2.61,2.21a.24.24,0,0,1,0,.35A.25.25,0,0,1,80.16,84.37Z"/><path class="cls-2" d="M80,85.48h-.07l-3.11-.86a.25.25,0,1,1,.13-.48L80,85a.25.25,0,0,1,.17.31A.26.26,0,0,1,80,85.48Z"/><circle class="cls-7" cx="92.2" cy="41.56" r="3.32"/><circle class="cls-7" cx="103.41" cy="41.56" r="3.32"/><path class="cls-7" d="M98,40.52a.51.51,0,0,0-.59,0l-1.2.91a.51.51,0,0,0-.1.7.5.5,0,0,0,.7.09l.91-.68,1,.72a.52.52,0,0,0,.29.09.5.5,0,0,0,.28-.91Z"/></svg>