<svg id="Layer_2" data-name="Layer 2" xmlns="http://www.w3.org/2000/svg" viewBox="0 0 200.75 174.56"><defs><style>.cls-1{fill:#fff;}.cls-2{fill:#f58d74;}</style></defs><title>cha-06</title><path class="cls-1" d="M90,60.3l2.15-.5s2.06,8.5,6.59,8.91,10.64-7.17,10.64-7.17l1.32,1.15s-4.7,12-2.56,18.39,3.47,7.75,3.47,7.75,1.57,2.06.16,2.81-1.32,1.07-1.32,1.07l1.24.82-1.32,4.87-22.43,2.89L86,89.16l-.24-2.55S96.65,79.35,90,60.3Z"/><path class="cls-2" d="M102.8,71.38a.35.35,0,0,0,.24-.1l3.12-3a.35.35,0,0,0,0-.49.36.36,0,0,0-.5,0l-3.11,3a.36.36,0,0,0,.24.61Z"/><path class="cls-2" d="M106.22,69.22,104,71a.36.36,0,0,0,0,.5.36.36,0,0,0,.27.12.3.3,0,0,0,.22-.08l2.2-1.82a.35.35,0,1,0-.44-.54Z"/><path class="cls-2" d="M101.39,91.2a.35.35,0,0,0-.47-.14l-5.56,3a.36.36,0,0,0-.14.48.33.33,0,0,0,.31.18.32.32,0,0,0,.16,0l5.56-3A.35.35,0,0,0,101.39,91.2Z"/><path class="cls-2" d="M106.36,93.42,98.7,95.24a.35.35,0,0,0-.26.42.35.35,0,0,0,.34.27h.08l7.66-1.82a.35.35,0,1,0-.16-.68Z"/><path class="cls-2" d="M112.38,90.84l-1.15-1.77a.35.35,0,1,0-.58.38l1,1.52L110,92.35a.33.33,0,0,0-.12.24.39.39,0,0,0,.09.26l1.24,1.32L109.8,97.5A.36.36,0,0,0,110,98a.32.32,0,0,0,.14,0,.35.35,0,0,0,.32-.22L112,94.23a.34.34,0,0,0-.07-.37l-1.14-1.22,1.55-1.34A.35.35,0,0,0,112.38,90.84Z"/><path class="cls-2" d="M91,82.93c-.38.37-2.28,2.23-2.47,2.47a.35.35,0,0,0,0,.5.34.34,0,0,0,.22.07.34.34,0,0,0,.27-.13c.13-.16,1.55-1.56,2.42-2.41a.35.35,0,0,0-.49-.5Z"/><path class="cls-2" d="M87,90.38a.33.33,0,0,0,.19-.06.35.35,0,0,0,.11-.48l-1.67-2.63,1.52-.49a.35.35,0,1,0-.21-.66l-2,.62a.33.33,0,0,0-.22.21.34.34,0,0,0,0,.31l1.92,3A.34.34,0,0,0,87,90.38Z"/><path class="cls-2" d="M86.1,90a.34.34,0,0,0-.43-.24.35.35,0,0,0-.24.43l2,7.13a.35.35,0,0,0,.34.26l.09,0a.34.34,0,0,0,.24-.43Z"/></svg>