<svg id="Layer_2" data-name="Layer 2" xmlns="http://www.w3.org/2000/svg" viewBox="0 0 200.75 174.56"><defs><style>.cls-1{fill:#f58d74;}.cls-2{fill:#fff;}.cls-3{fill:#e3d072;}</style></defs><title>cha</title><path class="cls-1" d="M86.91,35.64S83.78,52,95.36,54.94L94.66,62l9-.7-.87-6.35s9.61-1.36,6.56-17.15-11.79-11.5-11.79-11.5L86,33.79Z"/><path class="cls-1" d="M87.07,40.49s-1.95-2.55-4-1.35S80.4,44,80.85,45.33s2.92,2.49,6.57-.56Z"/><path class="cls-2" d="M86.46,43.17l-2.24-2.25a.4.4,0,0,0-.57,0,.42.42,0,0,0,0,.57l.77.76-1.33,1a.42.42,0,0,0-.07.57.41.41,0,0,0,.32.15.43.43,0,0,0,.24-.08L85,42.82l.91.91a.39.39,0,0,0,.28.12.38.38,0,0,0,.28-.12A.39.39,0,0,0,86.46,43.17Z"/><path class="cls-1" d="M109.44,40.49s2-2.55,4-1.35,2.7,4.84,2.25,6.19-2.91,2.49-6.56-.56Z"/><path class="cls-2" d="M110.05,43.17l2.24-2.25a.4.4,0,1,1,.57.57l-.76.76,1.32,1a.4.4,0,0,1,.07.57.39.39,0,0,1-.31.15.44.44,0,0,1-.25-.08l-1.4-1.09-.91.91a.4.4,0,0,1-.29.12.39.39,0,0,1-.28-.12A.39.39,0,0,1,110.05,43.17Z"/><path class="cls-2" d="M90.83,42.72a.41.41,0,0,1-.37-.25.4.4,0,0,1,.22-.52l3.56-1.48a.4.4,0,0,1,.52.21.41.41,0,0,1-.22.53L91,42.69A.45.45,0,0,1,90.83,42.72Z"/><path class="cls-2" d="M105.62,41h0l-4.19-.25a.4.4,0,0,1,0-.8l4.19.25a.4.4,0,0,1,0,.8Z"/><path class="cls-2" d="M91.64,48.74a1.13,1.13,0,0,1-.36-.06,1.71,1.71,0,0,1-1-1.5,2,2,0,0,1,1-2.12.25.25,0,1,1,.2.46,1.43,1.43,0,0,0-.69,1.6c.08.57.32,1,.68,1.08a.61.61,0,0,0,.63-.14,17.94,17.94,0,0,0,1.2-1.4c-.09-.23-.26-.49-.39-.49h0c-.19,0-.53.34-.71.59a.25.25,0,1,1-.41-.29c.1-.14.59-.8,1.12-.8h0c.59,0,.86.86.89,1a.27.27,0,0,1,0,.23s-.84,1.07-1.33,1.56A1.1,1.1,0,0,1,91.64,48.74Z"/><path class="cls-2" d="M105.81,48.76c-.39,0-1.5-1.22-1.68-2a2.43,2.43,0,0,1,0-1.42c.09-.28,1.94-.84,2-.84a.25.25,0,0,1,.25.25.26.26,0,0,1-.21.25c-.15,0-1.25.45-1.55.58a2.26,2.26,0,0,0,0,1.06,3.65,3.65,0,0,0,1.22,1.59c.54-.1,2-.54,2-.87a2.55,2.55,0,0,0-.21-1.26l-1,0c-.09.13-.27.41-.42.66a.25.25,0,0,1-.34.08.26.26,0,0,1-.09-.35c.52-.82.56-.84.66-.87a6.66,6.66,0,0,1,1.4,0,.25.25,0,0,1,.21.15,3.18,3.18,0,0,1,.3,1.71c-.19.84-2.49,1.26-2.51,1.27Z"/><path class="cls-3" d="M91.05,36.08c-.06,0-.88.12-1.06.43s3.79,2,4.22,1.73-.12-1.7-.89-2A6,6,0,0,0,91.05,36.08Z"/><path class="cls-3" d="M100.81,37.81s.16-1.94,1.63-2.25,3.25-.5,2.7.16S100.92,38.67,100.81,37.81Z"/><path class="cls-2" d="M100.9,50.6l-.69-.34.48-.23a.4.4,0,1,0-.33-.72c-3.7,1.71-3.74,1.74-3.78,1.76a.42.42,0,0,0-.12.57.39.39,0,0,0,.33.18.42.42,0,0,0,.21-.06l2.28-1.07,1.26.63a.39.39,0,0,0,.18,0,.4.4,0,0,0,.18-.76Z"/><path class="cls-2" d="M100.45,55.31c-1.26.13-2.57.13-2.59.13a.26.26,0,0,0-.25.25.25.25,0,0,0,.25.25s1.35,0,2.64-.13a.24.24,0,0,0,.22-.27A.24.24,0,0,0,100.45,55.31Z"/><path class="cls-2" d="M100.28,56.24a11.45,11.45,0,0,1-2.48.1.24.24,0,0,0-.26.24.25.25,0,0,0,.23.26s.47,0,1,0a7.37,7.37,0,0,0,1.64-.14.25.25,0,0,0-.13-.49Z"/><path class="cls-1" d="M122.64,80.23c-6.3-20-20.74-21-20.74-21L100,58.73v-.42l-.75.21-.74-.21v.42l-1.88.53s-14.44,1-20.74,21c0,0-5.5,16.34-2.72,25.35,0,0,1.32,5.79,6.67,3.52a4.61,4.61,0,0,0,1.4-5.27l-.81-1.47s2-4.47-1.39-5.35c0,0-.15-6.89,1.61-10.26s5.5-11.07,7.77-12.53c0,0-.26,20.28-.26,23.28s.49,7.42-.25,11.82-1.4,30.82-.66,36.46a28.21,28.21,0,0,1-1.61,4.84c-1,2-2.79,4.32-2.79,5.57,0,0-4,.59-3.88,2.64s3.88,1.24,3.88,1.24l9.45-.14s3.67,0,3.6-3.08-1.18-5.2-1-11.51,2.29-32.48,4-37.46a9.92,9.92,0,0,0,.34-1.76,10.72,10.72,0,0,0,.35,1.76c1.68,5,3.75,31.16,4,37.46s-.88,8.43-1,11.51,3.59,3.08,3.59,3.08l9.46.14s3.81.81,3.88-1.24-3.88-2.64-3.88-2.64c0-1.25-1.83-3.59-2.79-5.57a28.21,28.21,0,0,1-1.61-4.84c.73-5.64.07-32.07-.66-36.46s-.25-8.81-.25-11.82-.26-23.28-.26-23.28c2.27,1.46,6,9.16,7.77,12.53S119.49,97,119.49,97c-3.37.88-1.39,5.35-1.39,5.35l-.81,1.47a4.61,4.61,0,0,0,1.4,5.27c5.35,2.27,6.67-3.52,6.67-3.52C128.14,96.57,122.64,80.23,122.64,80.23Z"/><circle class="cls-2" cx="93.94" cy="76.38" r="0.71"/><circle class="cls-2" cx="105.16" cy="75.9" r="0.69"/><path class="cls-2" d="M80.28,102.14l-1.4.12c-.41-.89-.84-1.84-.89-2a.25.25,0,0,0-.49,0,13.77,13.77,0,0,0,1,2.31.24.24,0,0,0,.23.14h0l1.58-.13a.26.26,0,0,0,.22-.28A.24.24,0,0,0,80.28,102.14Z"/><path class="cls-2" d="M121.35,100.81a.24.24,0,0,0-.35,0l-1.23,1.51h-1.6a.26.26,0,0,0-.25.25.25.25,0,0,0,.25.25h1.72a.23.23,0,0,0,.19-.09l1.31-1.6A.24.24,0,0,0,121.35,100.81Z"/><path class="cls-2" d="M100.45,92.35l.67-1.16a.25.25,0,0,0-.44-.24l-.6,1L99,90.89a.25.25,0,0,0-.35,0,.25.25,0,0,0,0,.36l1.23,1.19-.45.79a.25.25,0,0,0,.09.34.27.27,0,0,0,.12,0,.25.25,0,0,0,.22-.12l.39-.68.55.54a.24.24,0,0,0,.18.07.26.26,0,0,0,.18-.07.26.26,0,0,0,0-.36Z"/><path class="cls-2" d="M106.25,72l-2.14-.44a.26.26,0,0,0-.3.2.25.25,0,0,0,.2.29l2.15.44h0a.25.25,0,0,0,.25-.2A.24.24,0,0,0,106.25,72Z"/><path class="cls-2" d="M94.37,72.31a.24.24,0,0,0-.34-.09l-1.87,1a.25.25,0,0,0,.12.47l.12,0,1.87-1A.25.25,0,0,0,94.37,72.31Z"/><path class="cls-2" d="M78.81,85.12A.24.24,0,0,0,79,85l1.17-1.66a.25.25,0,0,0-.06-.35.24.24,0,0,0-.34.06l-1.17,1.66a.24.24,0,0,0,.06.35A.24.24,0,0,0,78.81,85.12Z"/><path class="cls-2" d="M119.37,83.24a.24.24,0,0,0,.22.14.2.2,0,0,0,.11,0,.25.25,0,0,0,.11-.34l-.73-1.47a.25.25,0,0,0-.45.23Z"/><path class="cls-2" d="M105.42,147.58a.25.25,0,0,0-.21.29l.33,1.86-.94,1.35a.24.24,0,0,0,0,.28l.92,1.35a.26.26,0,0,0,.21.11.23.23,0,0,0,.14,0,.26.26,0,0,0,.07-.35l-.83-1.21.9-1.28a.27.27,0,0,0,0-.19l-.34-2A.24.24,0,0,0,105.42,147.58Z"/><path class="cls-2" d="M93.06,149.1l.41-2.08a.25.25,0,0,0-.2-.29.24.24,0,0,0-.29.2l-.43,2.16a.26.26,0,0,0,0,.17l.87,1.6L93,152.3a.25.25,0,0,0,.15.32h.08a.26.26,0,0,0,.24-.17l.54-1.54a.23.23,0,0,0,0-.2Z"/><path class="cls-2" d="M112.36,157.41l-.81,0a.24.24,0,0,0-.23.26.25.25,0,0,0,.25.24h0l.81,0a.26.26,0,0,0,.23-.27A.25.25,0,0,0,112.36,157.41Z"/><path class="cls-2" d="M114.35,157.57l-.89-.1a.26.26,0,0,0-.28.22.25.25,0,0,0,.22.28l.89.1h0a.26.26,0,0,0,.25-.22A.26.26,0,0,0,114.35,157.57Z"/><path class="cls-2" d="M116,157.53l-.62.06a.26.26,0,0,0-.23.28.26.26,0,0,0,.25.22h0L116,158a.25.25,0,0,0,.22-.27A.26.26,0,0,0,116,157.53Z"/><path class="cls-2" d="M118.36,157.41l-1,.12a.25.25,0,0,0-.22.28.26.26,0,0,0,.25.22h0l1-.13a.24.24,0,0,0,.22-.27A.24.24,0,0,0,118.36,157.41Z"/><path class="cls-2" d="M82.35,157.34h-1a.25.25,0,0,0-.25.25.25.25,0,0,0,.25.25h1a.25.25,0,0,0,.25-.25A.25.25,0,0,0,82.35,157.34Z"/><path class="cls-2" d="M84.47,157.51a8.19,8.19,0,0,0-1.06-.06.25.25,0,0,0-.2.28.28.28,0,0,0,.28.22,6.88,6.88,0,0,1,.93.06h0a.25.25,0,0,0,.25-.23A.25.25,0,0,0,84.47,157.51Z"/><path class="cls-2" d="M86.11,157.39l-.76.08a.25.25,0,0,0-.23.27.27.27,0,0,0,.25.23h0l.77-.09a.25.25,0,1,0-.06-.49Z"/><path class="cls-2" d="M88.05,157.41l-.86,0a.24.24,0,0,0-.27.23.25.25,0,0,0,.24.26l.87,0h0a.25.25,0,0,0,.25-.24A.24.24,0,0,0,88.05,157.41Z"/><path class="cls-2" d="M109.68,128.23a.25.25,0,0,0-.35,0,.26.26,0,0,0,0,.36l.5.51-.4.86-1.14-.17.46-2.39,1.07-.17a.25.25,0,0,0,0-.5s-.09,0-1.32.21a.26.26,0,0,0-.2.2l-.54,2.82a.22.22,0,0,0,0,.19.27.27,0,0,0,.17.1l1.59.23h0a.25.25,0,0,0,.23-.15l.54-1.18a.23.23,0,0,0,0-.27Z"/><path class="cls-2" d="M89.62,126.93c-1.22-.21-1.29-.21-1.31-.21a.25.25,0,0,0,0,.5l1.08.17.46,2.39-1.15.17-.39-.86.49-.51a.25.25,0,1,0-.36-.35l-.61.64a.25.25,0,0,0,0,.27l.55,1.18a.25.25,0,0,0,.22.15h0l1.59-.23a.27.27,0,0,0,.17-.1.27.27,0,0,0,0-.19l-.55-2.82A.26.26,0,0,0,89.62,126.93Z"/><path class="cls-3" d="M113.38,22.57c-1.54-2.43-5.72-5.66-5.72-5.66-3.58-.63-12,1-14,1.35a.3.3,0,0,1-.35-.31c0-.56.05-1.53-.19-1.73s-1.88,2.27-2.38,3a1.9,1.9,0,0,0,0,1.74,6.59,6.59,0,0,0-2-.87c-1.38-.42-6.75,5.11-8,6.93S79,34.5,80.22,34.19a3,3,0,0,1,2.22.34l4.2,3.84a.37.37,0,0,0,.61-.2l.88-4.7s2.81-3.4,2.86-3.33c1.93,2.88,6,3.17,7.65,3.17a.53.53,0,0,0,.51-.66L98.77,31l.29-.18,2,2.26a.5.5,0,0,0,.37.17.46.46,0,0,0,.33-.13.49.49,0,0,0,0-.7l-1.9-2.14.43-.27,2.22,2.51a.51.51,0,0,0,.38.16.52.52,0,0,0,.33-.12.5.5,0,0,0,0-.71l-2.11-2.38.39-.24a43.58,43.58,0,0,0,6.17,4.63,1.83,1.83,0,0,1,.79,1.26c.2,1.55.65,4.7.85,4.08.26-.82,4.23-5.79,5.58-5.48.33.08,1.14.4,1.14.4A21.32,21.32,0,0,0,113.38,22.57Z"/><path class="cls-2" d="M92.81,20.54,90.6,22.36a.29.29,0,0,0-.09.22.26.26,0,0,0,.14.2l1.9,1a.2.2,0,0,0,.11,0,.28.28,0,0,0,.23-.13.26.26,0,0,0-.11-.34l-1.57-.83,1.92-1.58a.25.25,0,0,0,0-.35A.26.26,0,0,0,92.81,20.54Z"/><path class="cls-2" d="M86.89,23.32a.27.27,0,0,0,.12,0l1.86-1a.25.25,0,1,0-.25-.44l-1.86,1a.24.24,0,0,0-.09.34A.24.24,0,0,0,86.89,23.32Z"/><path class="cls-2" d="M88.82,23l-1.46,3.35a.25.25,0,0,0,.13.33l.1,0a.26.26,0,0,0,.23-.15l1.46-3.35a.24.24,0,0,0-.13-.33A.25.25,0,0,0,88.82,23Z"/><path class="cls-2" d="M90.14,24.12a.25.25,0,0,0-.14-.33.26.26,0,0,0-.33.13l-.91,2.17a.25.25,0,0,0,0,.19l1,2.38a.24.24,0,0,0,.23.15h.09a.26.26,0,0,0,.14-.33l-.94-2.28Z"/><path class="cls-2" d="M88.2,29.5c-.11,0-.19,0-1.48,1.2a.21.21,0,0,0-.08.19l.06,1.8a.24.24,0,0,0,.25.24h0a.25.25,0,0,0,.24-.26L87.14,31c.49-.45,1-.92,1.15-1a.27.27,0,0,0,.16-.24A.25.25,0,0,0,88.2,29.5Z"/><path class="cls-2" d="M85.54,30.72a.26.26,0,0,0-.28.23l-.09,1a.25.25,0,0,0,.23.27h0a.25.25,0,0,0,.25-.23l.09-1A.26.26,0,0,0,85.54,30.72Z"/><path class="cls-2" d="M95.61,28.23a.25.25,0,0,0-.25.43l1,.55a.27.27,0,0,0,.12,0,.25.25,0,0,0,.22-.12.26.26,0,0,0-.09-.35Z"/><path class="cls-2" d="M103.94,25a.25.25,0,0,0-.32.39L106,27.29a.25.25,0,0,0,.16.06.23.23,0,0,0,.19-.09.25.25,0,0,0,0-.35Z"/><path class="cls-2" d="M104.85,23.32a.25.25,0,0,0,.05-.49l-2.68-.58a.26.26,0,0,0-.3.19.25.25,0,0,0,.19.3l2.69.58Z"/><path class="cls-2" d="M106.12,20.43l2.6.36h0a.25.25,0,0,0,0-.49l-2.59-.37a.25.25,0,0,0-.08.5Z"/><path class="cls-2" d="M111.23,24.54l-2.47-1.47a.25.25,0,0,0-.34.09.24.24,0,0,0,.08.34L111,25a.31.31,0,0,0,.13,0,.25.25,0,0,0,.22-.12A.25.25,0,0,0,111.23,24.54Z"/><path class="cls-2" d="M109.27,26.66a.25.25,0,0,0-.35,0,.26.26,0,0,0,0,.36l1.41,1.52a.25.25,0,0,0,.18.08.27.27,0,0,0,.17-.06.25.25,0,0,0,0-.36Z"/></svg>