<svg id="Layer_4" data-name="Layer 4" xmlns="http://www.w3.org/2000/svg" viewBox="0 0 200.75 174.56"><defs><style>.cls-1{fill:none;stroke:#f58d74;stroke-linecap:round;stroke-miterlimit:10;stroke-width:1.5px;}.cls-2{fill:#f58d74;}.cls-3{fill:#fff;}</style></defs><title>bad-06</title><circle class="cls-1" cx="149.04" cy="57.23" r="5.63"/><circle class="cls-2" cx="148.98" cy="56.04" r="2.29"/><path class="cls-2" d="M148.19,58l.08.64a.41.41,0,0,1-.21.4l-.87.44a.4.4,0,0,0-.15.14l-1.16,1.82a.39.39,0,0,0,.19.58l2,.74.11,0,1.39.09a.25.25,0,0,0,.12,0l1.18-.28.08,0,1-.5.07,0,.65-.51a.38.38,0,0,0,.1-.5l-1-1.83a.42.42,0,0,0-.3-.21l-1.27-.15a.39.39,0,0,1-.33-.26l-.25-.76a.4.4,0,0,0-.4-.27l-.66,0A.4.4,0,0,0,148.19,58Z"/><path class="cls-3" d="M147.38,56.56l-.12-2.2a.39.39,0,0,1,.23-.38l1.38-.7a.47.47,0,0,1,.31,0l2.42.76a.41.41,0,0,1,.28.4l-.07,2.83a.46.46,0,0,1-.15.3l-1.44,1.21a.41.41,0,0,1-.5,0l-1.79-1.32a.35.35,0,0,1-.1-.11l-.38-.59A.48.48,0,0,1,147.38,56.56Z"/><circle class="cls-2" cx="148.69" cy="55.4" r="0.62"/><circle class="cls-2" cx="150.79" cy="55.4" r="0.62"/><path class="cls-2" d="M150.11,57.07a.17.17,0,0,1-.1,0,.15.15,0,0,1,0-.22l.15-.2-.25-.4a.16.16,0,0,1,.27-.17l.31.5a.17.17,0,0,1,0,.18l-.23.28A.16.16,0,0,1,150.11,57.07Z"/></svg>