<svg id="Layer_4" data-name="Layer 4" xmlns="http://www.w3.org/2000/svg" viewBox="0 0 200.75 174.56"><defs><style>.cls-1{fill:#f58d74;}</style></defs><title>bad-01</title><path class="cls-1" d="M164.48,114.5a1.25,1.25,0,1,0,0,1.77A1.25,1.25,0,0,0,164.48,114.5Z"/><path class="cls-1" d="M166.26,114a.41.41,0,0,0,0-.58,3.83,3.83,0,0,0-5.36-.47.41.41,0,0,0,0,.58l0,0a.42.42,0,0,0,.56,0,3,3,0,0,1,4.23.43A.42.42,0,0,0,166.26,114Z"/><path class="cls-1" d="M167.19,112.54a.42.42,0,0,0,.59,0,.41.41,0,0,0,0-.58,5.78,5.78,0,0,0-8.28-.3.41.41,0,0,0,0,.58h0a.42.42,0,0,0,.58,0A4.92,4.92,0,0,1,167.19,112.54Z"/><path class="cls-1" d="M168.64,111a.41.41,0,1,0,.58-.58,8,8,0,0,0-5.74-2.67,8.47,8.47,0,0,0-5.52,2.39.41.41,0,0,0,0,.58h0a.4.4,0,0,0,.58,0,7.83,7.83,0,0,1,4.95-2.13A7.25,7.25,0,0,1,168.64,111Z"/></svg>