<svg id="Layer_4" data-name="Layer 4" xmlns="http://www.w3.org/2000/svg" viewBox="0 0 200.75 174.56"><defs><style>.cls-1{fill:#f58d74;}.cls-2{fill:#fff;}</style></defs><title>bad-10</title><path class="cls-1" d="M184.67,98.78c0-2.74-2.62-5-5.85-5S173,96,173,98.78s2.35,4.71,5.35,4.93a.08.08,0,0,1,.07.12l-1,1.86a.08.08,0,0,0,.11.11l4.58-2.9A4.8,4.8,0,0,0,184.67,98.78Z"/><circle class="cls-2" cx="177.08" cy="98.41" r="0.78"/><ellipse class="cls-2" cx="180.39" cy="97.05" rx="1.35" ry="1.36"/><path class="cls-2" d="M178.94,102.62a5.17,5.17,0,0,1-1.18-.14,4,4,0,0,1-3-4.21A.27.27,0,0,1,175,98a.28.28,0,0,1,.24.29,3.37,3.37,0,0,0,2.64,3.65,3.76,3.76,0,0,0,3.43-.74,2.86,2.86,0,0,0,.92-1.69,2.64,2.64,0,0,0,0-1.24.25.25,0,0,1,.16-.33.25.25,0,0,1,.33.16,3,3,0,0,1,.08,1.49,3.35,3.35,0,0,1-1.1,2A4,4,0,0,1,178.94,102.62Z"/></svg>