<svg id="Layer_4" data-name="Layer 4" xmlns="http://www.w3.org/2000/svg" viewBox="0 0 200.75 174.56"><defs><style>.cls-1{fill:none;stroke:#f58d74;stroke-linecap:round;stroke-miterlimit:10;stroke-width:1.5px;}.cls-2{fill:#f58d74;}.cls-3{fill:#fff;}</style></defs><title>bad-03</title><circle class="cls-1" cx="178.9" cy="57.23" r="5.63"/><circle class="cls-2" cx="178.83" cy="56.04" r="2.29"/><path class="cls-2" d="M178.05,58l.07.64a.4.4,0,0,1-.21.4l-.86.44a.34.34,0,0,0-.15.14l-1.17,1.82a.39.39,0,0,0,.2.58l2,.74.11,0,1.4.09a.25.25,0,0,0,.12,0l1.17-.28.09,0,1-.5.07,0,.65-.51a.4.4,0,0,0,.1-.5l-1-1.83a.39.39,0,0,0-.3-.21l-1.26-.15a.39.39,0,0,1-.33-.26l-.26-.76a.4.4,0,0,0-.4-.27l-.66,0A.39.39,0,0,0,178.05,58Z"/><path class="cls-3" d="M177.24,56.56l-.12-2.2a.4.4,0,0,1,.22-.38l1.39-.7a.44.44,0,0,1,.3,0l2.42.76a.42.42,0,0,1,.29.4l-.08,2.83a.41.41,0,0,1-.14.3l-1.44,1.21a.42.42,0,0,1-.51,0l-1.79-1.32a.52.52,0,0,1-.1-.11l-.38-.59A.47.47,0,0,1,177.24,56.56Z"/><circle class="cls-2" cx="178.55" cy="55.4" r="0.62"/><circle class="cls-2" cx="180.65" cy="55.4" r="0.62"/><path class="cls-2" d="M180,57.07a.19.19,0,0,1-.1,0,.17.17,0,0,1,0-.22l.16-.2-.25-.4a.16.16,0,0,1,.05-.22.16.16,0,0,1,.21,0l.31.5a.15.15,0,0,1,0,.18l-.23.28A.14.14,0,0,1,180,57.07Z"/></svg>