<svg id="Layer_4" data-name="Layer 4" xmlns="http://www.w3.org/2000/svg" viewBox="0 0 200.75 174.56"><defs><style>.cls-1{fill:none;stroke:#f58d74;stroke-linecap:round;stroke-miterlimit:10;stroke-width:1.5px;}.cls-2{fill:#f58d74;}.cls-3{fill:#fff;}</style></defs><title>bad-02</title><circle class="cls-1" cx="164.22" cy="44.02" r="5.63"/><circle class="cls-2" cx="164.15" cy="42.83" r="2.29"/><path class="cls-2" d="M163.37,44.79l.07.65a.38.38,0,0,1-.21.39l-.86.44a.41.41,0,0,0-.15.14l-1.17,1.83a.4.4,0,0,0,.2.58l2,.73.11,0,1.4.09h.12l1.17-.28.08,0,1-.5.07-.05.65-.5a.41.41,0,0,0,.1-.51L167,46a.4.4,0,0,0-.3-.2l-1.26-.15a.4.4,0,0,1-.33-.27l-.26-.76a.4.4,0,0,0-.4-.26l-.66,0A.4.4,0,0,0,163.37,44.79Z"/><path class="cls-3" d="M162.56,43.35l-.12-2.2a.43.43,0,0,1,.22-.39l1.39-.69a.35.35,0,0,1,.3,0l2.42.76a.41.41,0,0,1,.29.4L167,44a.37.37,0,0,1-.14.3l-1.44,1.22a.41.41,0,0,1-.51,0l-1.79-1.32a.36.36,0,0,1-.1-.11l-.38-.59A.33.33,0,0,1,162.56,43.35Z"/><circle class="cls-2" cx="163.87" cy="42.19" r="0.62"/><circle class="cls-2" cx="165.97" cy="42.19" r="0.62"/><path class="cls-2" d="M165.28,43.86a.14.14,0,0,1-.1,0,.17.17,0,0,1,0-.22l.16-.19-.25-.41a.15.15,0,1,1,.26-.16l.31.5a.15.15,0,0,1,0,.18l-.23.28A.14.14,0,0,1,165.28,43.86Z"/></svg>