<svg id="Layer_4" data-name="Layer 4" xmlns="http://www.w3.org/2000/svg" viewBox="0 0 200.75 174.56"><defs><style>.cls-1{fill:none;stroke:#6da4f6;stroke-linecap:round;stroke-miterlimit:10;stroke-width:1.5px;}.cls-2{fill:#6da4f6;}</style></defs><title>good-08</title><polygon class="cls-1" points="30.06 67.54 30.93 73.46 41.68 71.44 40.67 65.09 30.06 67.54"/><line class="cls-1" x1="42.63" y1="66.39" x2="43.06" y2="68.92"/><path class="cls-2" d="M32.55,72a.61.61,0,0,1-.6-.51l-.46-2.78A.59.59,0,0,1,32,68a.61.61,0,0,1,.7.49l.46,2.78a.62.62,0,0,1-.5.7Z"/><path class="cls-2" d="M34.46,71.77a.61.61,0,0,1-.6-.51l-.46-2.93a.62.62,0,0,1,.51-.7.61.61,0,0,1,.69.51l.46,2.93a.6.6,0,0,1-.5.69Z"/></svg>