<svg id="Layer_4" data-name="Layer 4" xmlns="http://www.w3.org/2000/svg" viewBox="0 0 200.75 174.56"><defs><style>.cls-1{fill:none;stroke:#6da4f6;stroke-linecap:round;stroke-miterlimit:10;stroke-width:1.5px;}.cls-2{fill:#6da4f6;}</style></defs><title>good-02</title><circle class="cls-1" cx="36.84" cy="44.24" r="5.85"/><circle class="cls-2" cx="36.77" cy="43" r="2.38"/><path class="cls-2" d="M36,45l.08.67a.41.41,0,0,1-.22.41l-.9.46a.36.36,0,0,0-.16.14l-1.21,1.9a.4.4,0,0,0,.21.6l2.07.76a.2.2,0,0,0,.11,0l1.45.1h.12l1.23-.3a.13.13,0,0,0,.08,0l1.06-.52.08,0,.67-.53a.42.42,0,0,0,.11-.52l-1.06-1.91a.39.39,0,0,0-.31-.2l-1.32-.16a.43.43,0,0,1-.34-.28l-.26-.79a.42.42,0,0,0-.42-.27l-.68,0A.42.42,0,0,0,36,45Z"/></svg>