<svg id="Layer_4" data-name="Layer 4" xmlns="http://www.w3.org/2000/svg" viewBox="0 0 200.75 174.56"><defs><style>.cls-1{fill:#6da4f6;}</style></defs><title>good-01</title><path class="cls-1" d="M40.93,114.64a.72.72,0,0,0-.74-.7l-1.1,0-.45-4.6a2,2,0,0,0-1.73-1.77l-.66-.08a2,2,0,0,0-1.51.44,2,2,0,0,0-.71,1.41c-.06,1.16-.18,3.23-.27,4.77l-1.13,0a.71.71,0,0,0-.69.73l.2,9a.73.73,0,0,0,.78.7l7.51-.64a.71.71,0,0,0,.66-.72Zm-6-5.22a1.1,1.1,0,0,1,1.22-1l.66.08a1.1,1.1,0,0,1,1,1L38.2,114l-3.54.11C34.73,112.82,34.83,111.08,34.92,109.42Zm2.23,12.63a.78.78,0,1,1,0-1.11A.78.78,0,0,1,37.15,122.05Zm1.13-1.42a.27.27,0,0,1-.37,0,1.89,1.89,0,0,0-2.67-.27.26.26,0,0,1-.35,0l0,0a.25.25,0,0,1,0-.36,2.41,2.41,0,0,1,3.38.29A.27.27,0,0,1,38.28,120.63Zm.95-.93a.25.25,0,0,1-.36,0,3.1,3.1,0,0,0-4.49-.18.27.27,0,0,1-.37,0h0a.25.25,0,0,1,0-.36,3.65,3.65,0,0,1,5.22.18A.25.25,0,0,1,39.23,119.7Zm.91-1a.25.25,0,0,1-.36,0,4.54,4.54,0,0,0-3.24-1.53,4.93,4.93,0,0,0-3.12,1.34.26.26,0,0,1-.37,0h0a.27.27,0,0,1,0-.37,5.33,5.33,0,0,1,3.48-1.5,5,5,0,0,1,3.61,1.68A.25.25,0,0,1,40.14,118.75Z"/></svg>