<svg id="Layer_4" data-name="Layer 4" xmlns="http://www.w3.org/2000/svg" viewBox="0 0 200.75 174.56"><defs><style>.cls-1{fill:none;stroke:#6da4f6;stroke-linecap:round;stroke-miterlimit:10;stroke-width:1.5px;}.cls-2{fill:#6da4f6;}</style></defs><title>good-03</title><circle class="cls-1" cx="21.55" cy="58.59" r="5.85"/><circle class="cls-2" cx="21.48" cy="57.36" r="2.38"/><path class="cls-2" d="M20.67,59.4l.08.67a.4.4,0,0,1-.23.41l-.89.46a.36.36,0,0,0-.16.14L18.26,63a.4.4,0,0,0,.21.6l2.07.76a.35.35,0,0,0,.11,0l1.45.09a.25.25,0,0,0,.12,0l1.23-.29.08,0,1.06-.52.08,0,.67-.52a.43.43,0,0,0,.11-.53l-1.06-1.9a.45.45,0,0,0-.31-.21l-1.32-.15a.43.43,0,0,1-.34-.28l-.27-.79a.4.4,0,0,0-.41-.28l-.69,0A.41.41,0,0,0,20.67,59.4Z"/></svg>