<svg id="Layer_4" data-name="Layer 4" xmlns="http://www.w3.org/2000/svg" viewBox="0 0 200.75 174.56"><defs><style>.cls-1{fill:none;stroke:#6da4f6;stroke-linecap:round;stroke-miterlimit:10;stroke-width:1.5px;}.cls-2{fill:#6da4f6;}</style></defs><title>good-06</title><circle class="cls-1" cx="52.36" cy="58.39" r="5.85"/><circle class="cls-2" cx="52.3" cy="57.16" r="2.38"/><path class="cls-2" d="M51.48,59.2l.08.66a.43.43,0,0,1-.22.42l-.9.45a.57.57,0,0,0-.16.15l-1.21,1.89a.41.41,0,0,0,.21.61l2.07.76.11,0,1.45.09a.25.25,0,0,0,.12,0L54.26,64l.08,0,1.07-.52.07,0,.67-.52a.42.42,0,0,0,.11-.53l-1.06-1.9a.43.43,0,0,0-.31-.21l-1.31-.15a.41.41,0,0,1-.34-.28L53,59a.42.42,0,0,0-.41-.28l-.69,0A.41.41,0,0,0,51.48,59.2Z"/></svg>